<svg width="519" height="101" viewBox="0 0 519 101" fill="none" xmlns="http://www.w3.org/2000/svg">
<path d="M399.611 98.3304V25.9194H417.577V40.1822C421.142 30.1708 429.508 23.8623 439.931 23.8623C450.216 23.8623 457.896 30.0337 460.914 39.9079C464.479 30.0337 472.845 23.8623 483.131 23.8623C496.433 23.8623 505.348 34.0108 505.348 49.3707V98.3304H486.01V51.7021C486.01 42.3765 482.033 37.3022 474.765 37.3022C467.359 37.3022 462.148 44.2965 462.148 56.2278V98.3304H442.811V51.7021C442.811 42.3765 438.834 37.3022 431.565 37.3022C424.159 37.3022 418.948 44.2965 418.948 56.2278V98.3304H399.611Z" fill="url(#paint0_linear_1070_2216)"/>
<path d="M389.492 45.1193C386.886 44.4336 384.143 44.0222 381.263 44.0222C371.663 44.0222 366.315 49.7821 366.315 61.5763V98.3304H346.978V25.9194H365.218V45.805C368.783 32.228 378.109 23.9994 389.492 23.8623V45.1193Z" fill="url(#paint1_linear_1070_2216)"/>
<path d="M297.484 100.388C276.913 100.388 261.965 85.7133 261.965 62.5363C261.965 38.9479 277.187 23.8623 298.444 23.8623C319.153 23.8623 333.827 38.6736 333.827 61.5763C333.827 85.439 318.467 100.388 297.484 100.388ZM298.17 89.4162C306.947 89.4162 313.256 81.8733 313.256 62.5363C313.256 43.6107 306.81 34.8337 297.621 34.8337C288.707 34.8337 282.536 42.5136 282.536 61.5763C282.536 80.6391 288.982 89.4162 298.17 89.4162Z" fill="url(#paint2_linear_1070_2216)"/>
<path d="M224.655 98.3308V38.1255H212.86V25.9198H224.655V24.2741C224.655 8.22852 233.432 0 250.574 0C254.414 0 258.666 0.548561 261.546 1.23428V11.9313C259.626 11.3828 257.706 11.1085 255.649 11.1085C247.694 11.1085 243.992 14.9485 243.992 24.4113V25.9198H258.254V38.1255H243.992V98.3308H224.655Z" fill="url(#paint3_linear_1070_2216)"/>
<path d="M207.752 45.1193C205.146 44.4336 202.403 44.0222 199.523 44.0222C189.923 44.0222 184.575 49.7821 184.575 61.5763V98.3304H165.238V25.9194H183.478V45.805C187.043 32.228 196.369 23.9994 207.752 23.8623V45.1193Z" fill="url(#paint4_linear_1070_2216)"/>
<path d="M118.828 100.388C97.8453 100.388 83.1711 85.7133 83.1711 62.3992C83.1711 39.4965 98.531 23.8623 118.554 23.8623C137.891 23.8623 151.879 37.5765 151.879 62.9478H103.468C104.017 79.6791 111.697 87.6333 123.354 87.6333C132.131 87.6333 139.262 82.0105 141.868 72.4106H152.702C149.274 90.1019 136.382 100.388 118.828 100.388ZM118.142 34.6965C110.874 34.6965 105.662 40.4565 104.017 52.525H131.308C130.348 40.5936 125.411 34.6965 118.142 34.6965Z" fill="url(#paint5_linear_1070_2216)"/>
<path d="M0 98.3304V1.23389H38.1255C62.5367 1.23389 76.9366 13.9881 76.9366 33.0508C76.9366 51.9764 61.7139 65.4163 37.3026 65.4163H20.9827V98.3304H0ZM35.3826 15.0852H20.9827V51.8393H35.6569C47.8625 51.8393 55.1311 44.845 55.1311 33.5994C55.1311 21.8052 47.9997 15.0852 35.3826 15.0852Z" fill="url(#paint6_linear_1070_2216)"/>
<g filter="url(#filter0_n_1070_2216)">
<path d="M412.469 98.3304V25.9194H430.434V40.1822C434 30.1708 442.365 23.8623 452.788 23.8623C463.074 23.8623 470.754 30.0337 473.771 39.9079C477.337 30.0337 485.702 23.8623 495.988 23.8623C509.291 23.8623 518.205 34.0108 518.205 49.3707V98.3304H498.868V51.7021C498.868 42.3765 494.891 37.3022 487.622 37.3022C480.217 37.3022 475.005 44.2965 475.005 56.2278V98.3304H455.668V51.7021C455.668 42.3765 451.691 37.3022 444.423 37.3022C437.017 37.3022 431.806 44.2965 431.806 56.2278V98.3304H412.469Z" fill="url(#paint7_linear_1070_2216)"/>
</g>
<g filter="url(#filter1_n_1070_2216)">
<path d="M402.349 45.1193C399.743 44.4336 397 44.0222 394.12 44.0222C384.52 44.0222 379.172 49.7821 379.172 61.5763V98.3304H359.835V25.9194H378.075V45.805C381.64 32.228 390.966 23.9994 402.349 23.8623V45.1193Z" fill="url(#paint8_linear_1070_2216)"/>
</g>
<g filter="url(#filter2_n_1070_2216)">
<path d="M310.342 100.388C289.77 100.388 274.822 85.7133 274.822 62.5363C274.822 38.9479 290.045 23.8623 311.302 23.8623C332.01 23.8623 346.684 38.6736 346.684 61.5763C346.684 85.439 331.324 100.388 310.342 100.388ZM311.027 89.4162C319.804 89.4162 326.113 81.8733 326.113 62.5363C326.113 43.6107 319.667 34.8337 310.479 34.8337C301.564 34.8337 295.393 42.5136 295.393 61.5763C295.393 80.6391 301.839 89.4162 311.027 89.4162Z" fill="url(#paint9_linear_1070_2216)"/>
</g>
<g filter="url(#filter3_n_1070_2216)">
<path d="M237.512 98.3308V38.1255H225.718V25.9198H237.512V24.2741C237.512 8.22852 246.289 0 263.432 0C267.272 0 271.523 0.548561 274.403 1.23428V11.9313C272.483 11.3828 270.563 11.1085 268.506 11.1085C260.552 11.1085 256.849 14.9485 256.849 24.4113V25.9198H271.111V38.1255H256.849V98.3308H237.512Z" fill="url(#paint10_linear_1070_2216)"/>
</g>
<g filter="url(#filter4_n_1070_2216)">
<path d="M220.609 45.1193C218.003 44.4336 215.26 44.0222 212.38 44.0222C202.781 44.0222 197.432 49.7821 197.432 61.5763V98.3304H178.095V25.9194H196.335V45.805C199.901 32.228 209.226 23.9994 220.609 23.8623V45.1193Z" fill="url(#paint11_linear_1070_2216)"/>
</g>
<g filter="url(#filter5_n_1070_2216)">
<path d="M131.685 100.388C110.703 100.388 96.0283 85.7133 96.0283 62.3992C96.0283 39.4965 111.388 23.8623 131.411 23.8623C150.748 23.8623 164.736 37.5765 164.736 62.9478H116.325C116.874 79.6791 124.554 87.6333 136.211 87.6333C144.988 87.6333 152.119 82.0105 154.725 72.4106H165.559C162.131 90.1019 149.239 100.388 131.685 100.388ZM131 34.6965C123.731 34.6965 118.52 40.4565 116.874 52.525H144.165C143.205 40.5936 138.268 34.6965 131 34.6965Z" fill="url(#paint12_linear_1070_2216)"/>
</g>
<g filter="url(#filter6_n_1070_2216)">
<path d="M12.8572 98.3304V1.23389H50.9826C75.3939 1.23389 89.7938 13.9881 89.7938 33.0508C89.7938 51.9764 74.5711 65.4163 50.1598 65.4163H33.8399V98.3304H12.8572ZM48.2398 15.0852H33.8399V51.8393H48.5141C60.7197 51.8393 67.9882 44.845 67.9882 33.5994C67.9882 21.8052 60.8569 15.0852 48.2398 15.0852Z" fill="url(#paint13_linear_1070_2216)"/>
</g>
<defs>
<filter id="filter0_n_1070_2216" x="412.469" y="23.8623" width="105.736" height="74.4683" filterUnits="userSpaceOnUse" color-interpolation-filters="sRGB">
<feFlood flood-opacity="0" result="BackgroundImageFix"/>
<feBlend mode="normal" in="SourceGraphic" in2="BackgroundImageFix" result="shape"/>
<feTurbulence type="fractalNoise" baseFrequency="3.4795558452606201 3.4795558452606201" stitchTiles="stitch" numOctaves="3" result="noise" seed="7265" />
<feColorMatrix in="noise" type="luminanceToAlpha" result="alphaNoise" />
<feComponentTransfer in="alphaNoise" result="coloredNoise1">
<feFuncA type="discrete" tableValues="0 0 0 0 0 0 0 0 0 0 0 0 1 1 1 1 1 1 1 1 1 1 1 1 1 1 1 1 1 1 1 1 1 1 1 1 1 1 0 0 0 0 0 0 0 0 0 0 0 0 0 0 0 0 0 0 0 0 0 0 0 0 0 0 0 0 0 0 0 0 0 0 0 0 0 0 0 0 0 0 0 0 0 0 0 0 0 0 0 0 0 0 0 0 0 0 0 0 0 0 "/>
</feComponentTransfer>
<feComposite operator="in" in2="shape" in="coloredNoise1" result="noise1Clipped" />
<feFlood flood-color="rgba(44, 45, 51, 0.26)" result="color1Flood" />
<feComposite operator="in" in2="noise1Clipped" in="color1Flood" result="color1" />
<feMerge result="effect1_noise_1070_2216">
<feMergeNode in="shape" />
<feMergeNode in="color1" />
</feMerge>
</filter>
<filter id="filter1_n_1070_2216" x="359.835" y="23.8623" width="42.5142" height="74.4683" filterUnits="userSpaceOnUse" color-interpolation-filters="sRGB">
<feFlood flood-opacity="0" result="BackgroundImageFix"/>
<feBlend mode="normal" in="SourceGraphic" in2="BackgroundImageFix" result="shape"/>
<feTurbulence type="fractalNoise" baseFrequency="3.4795558452606201 3.4795558452606201" stitchTiles="stitch" numOctaves="3" result="noise" seed="7265" />
<feColorMatrix in="noise" type="luminanceToAlpha" result="alphaNoise" />
<feComponentTransfer in="alphaNoise" result="coloredNoise1">
<feFuncA type="discrete" tableValues="0 0 0 0 0 0 0 0 0 0 0 0 1 1 1 1 1 1 1 1 1 1 1 1 1 1 1 1 1 1 1 1 1 1 1 1 1 1 0 0 0 0 0 0 0 0 0 0 0 0 0 0 0 0 0 0 0 0 0 0 0 0 0 0 0 0 0 0 0 0 0 0 0 0 0 0 0 0 0 0 0 0 0 0 0 0 0 0 0 0 0 0 0 0 0 0 0 0 0 0 "/>
</feComponentTransfer>
<feComposite operator="in" in2="shape" in="coloredNoise1" result="noise1Clipped" />
<feFlood flood-color="rgba(44, 45, 51, 0.26)" result="color1Flood" />
<feComposite operator="in" in2="noise1Clipped" in="color1Flood" result="color1" />
<feMerge result="effect1_noise_1070_2216">
<feMergeNode in="shape" />
<feMergeNode in="color1" />
</feMerge>
</filter>
<filter id="filter2_n_1070_2216" x="274.822" y="23.8623" width="71.8625" height="76.5254" filterUnits="userSpaceOnUse" color-interpolation-filters="sRGB">
<feFlood flood-opacity="0" result="BackgroundImageFix"/>
<feBlend mode="normal" in="SourceGraphic" in2="BackgroundImageFix" result="shape"/>
<feTurbulence type="fractalNoise" baseFrequency="3.4795558452606201 3.4795558452606201" stitchTiles="stitch" numOctaves="3" result="noise" seed="7265" />
<feColorMatrix in="noise" type="luminanceToAlpha" result="alphaNoise" />
<feComponentTransfer in="alphaNoise" result="coloredNoise1">
<feFuncA type="discrete" tableValues="0 0 0 0 0 0 0 0 0 0 0 0 1 1 1 1 1 1 1 1 1 1 1 1 1 1 1 1 1 1 1 1 1 1 1 1 1 1 0 0 0 0 0 0 0 0 0 0 0 0 0 0 0 0 0 0 0 0 0 0 0 0 0 0 0 0 0 0 0 0 0 0 0 0 0 0 0 0 0 0 0 0 0 0 0 0 0 0 0 0 0 0 0 0 0 0 0 0 0 0 "/>
</feComponentTransfer>
<feComposite operator="in" in2="shape" in="coloredNoise1" result="noise1Clipped" />
<feFlood flood-color="rgba(44, 45, 51, 0.26)" result="color1Flood" />
<feComposite operator="in" in2="noise1Clipped" in="color1Flood" result="color1" />
<feMerge result="effect1_noise_1070_2216">
<feMergeNode in="shape" />
<feMergeNode in="color1" />
</feMerge>
</filter>
<filter id="filter3_n_1070_2216" x="225.718" y="0" width="48.6853" height="98.3306" filterUnits="userSpaceOnUse" color-interpolation-filters="sRGB">
<feFlood flood-opacity="0" result="BackgroundImageFix"/>
<feBlend mode="normal" in="SourceGraphic" in2="BackgroundImageFix" result="shape"/>
<feTurbulence type="fractalNoise" baseFrequency="3.4795558452606201 3.4795558452606201" stitchTiles="stitch" numOctaves="3" result="noise" seed="7265" />
<feColorMatrix in="noise" type="luminanceToAlpha" result="alphaNoise" />
<feComponentTransfer in="alphaNoise" result="coloredNoise1">
<feFuncA type="discrete" tableValues="0 0 0 0 0 0 0 0 0 0 0 0 1 1 1 1 1 1 1 1 1 1 1 1 1 1 1 1 1 1 1 1 1 1 1 1 1 1 0 0 0 0 0 0 0 0 0 0 0 0 0 0 0 0 0 0 0 0 0 0 0 0 0 0 0 0 0 0 0 0 0 0 0 0 0 0 0 0 0 0 0 0 0 0 0 0 0 0 0 0 0 0 0 0 0 0 0 0 0 0 "/>
</feComponentTransfer>
<feComposite operator="in" in2="shape" in="coloredNoise1" result="noise1Clipped" />
<feFlood flood-color="rgba(44, 45, 51, 0.26)" result="color1Flood" />
<feComposite operator="in" in2="noise1Clipped" in="color1Flood" result="color1" />
<feMerge result="effect1_noise_1070_2216">
<feMergeNode in="shape" />
<feMergeNode in="color1" />
</feMerge>
</filter>
<filter id="filter4_n_1070_2216" x="178.095" y="23.8623" width="42.5139" height="74.4683" filterUnits="userSpaceOnUse" color-interpolation-filters="sRGB">
<feFlood flood-opacity="0" result="BackgroundImageFix"/>
<feBlend mode="normal" in="SourceGraphic" in2="BackgroundImageFix" result="shape"/>
<feTurbulence type="fractalNoise" baseFrequency="3.4795558452606201 3.4795558452606201" stitchTiles="stitch" numOctaves="3" result="noise" seed="7265" />
<feColorMatrix in="noise" type="luminanceToAlpha" result="alphaNoise" />
<feComponentTransfer in="alphaNoise" result="coloredNoise1">
<feFuncA type="discrete" tableValues="0 0 0 0 0 0 0 0 0 0 0 0 1 1 1 1 1 1 1 1 1 1 1 1 1 1 1 1 1 1 1 1 1 1 1 1 1 1 0 0 0 0 0 0 0 0 0 0 0 0 0 0 0 0 0 0 0 0 0 0 0 0 0 0 0 0 0 0 0 0 0 0 0 0 0 0 0 0 0 0 0 0 0 0 0 0 0 0 0 0 0 0 0 0 0 0 0 0 0 0 "/>
</feComponentTransfer>
<feComposite operator="in" in2="shape" in="coloredNoise1" result="noise1Clipped" />
<feFlood flood-color="rgba(44, 45, 51, 0.26)" result="color1Flood" />
<feComposite operator="in" in2="noise1Clipped" in="color1Flood" result="color1" />
<feMerge result="effect1_noise_1070_2216">
<feMergeNode in="shape" />
<feMergeNode in="color1" />
</feMerge>
</filter>
<filter id="filter5_n_1070_2216" x="96.0283" y="23.8623" width="69.531" height="76.5254" filterUnits="userSpaceOnUse" color-interpolation-filters="sRGB">
<feFlood flood-opacity="0" result="BackgroundImageFix"/>
<feBlend mode="normal" in="SourceGraphic" in2="BackgroundImageFix" result="shape"/>
<feTurbulence type="fractalNoise" baseFrequency="3.4795558452606201 3.4795558452606201" stitchTiles="stitch" numOctaves="3" result="noise" seed="7265" />
<feColorMatrix in="noise" type="luminanceToAlpha" result="alphaNoise" />
<feComponentTransfer in="alphaNoise" result="coloredNoise1">
<feFuncA type="discrete" tableValues="0 0 0 0 0 0 0 0 0 0 0 0 1 1 1 1 1 1 1 1 1 1 1 1 1 1 1 1 1 1 1 1 1 1 1 1 1 1 0 0 0 0 0 0 0 0 0 0 0 0 0 0 0 0 0 0 0 0 0 0 0 0 0 0 0 0 0 0 0 0 0 0 0 0 0 0 0 0 0 0 0 0 0 0 0 0 0 0 0 0 0 0 0 0 0 0 0 0 0 0 "/>
</feComponentTransfer>
<feComposite operator="in" in2="shape" in="coloredNoise1" result="noise1Clipped" />
<feFlood flood-color="rgba(44, 45, 51, 0.26)" result="color1Flood" />
<feComposite operator="in" in2="noise1Clipped" in="color1Flood" result="color1" />
<feMerge result="effect1_noise_1070_2216">
<feMergeNode in="shape" />
<feMergeNode in="color1" />
</feMerge>
</filter>
<filter id="filter6_n_1070_2216" x="12.8572" y="1.23389" width="76.9365" height="97.0967" filterUnits="userSpaceOnUse" color-interpolation-filters="sRGB">
<feFlood flood-opacity="0" result="BackgroundImageFix"/>
<feBlend mode="normal" in="SourceGraphic" in2="BackgroundImageFix" result="shape"/>
<feTurbulence type="fractalNoise" baseFrequency="3.4795558452606201 3.4795558452606201" stitchTiles="stitch" numOctaves="3" result="noise" seed="7265" />
<feColorMatrix in="noise" type="luminanceToAlpha" result="alphaNoise" />
<feComponentTransfer in="alphaNoise" result="coloredNoise1">
<feFuncA type="discrete" tableValues="0 0 0 0 0 0 0 0 0 0 0 0 1 1 1 1 1 1 1 1 1 1 1 1 1 1 1 1 1 1 1 1 1 1 1 1 1 1 0 0 0 0 0 0 0 0 0 0 0 0 0 0 0 0 0 0 0 0 0 0 0 0 0 0 0 0 0 0 0 0 0 0 0 0 0 0 0 0 0 0 0 0 0 0 0 0 0 0 0 0 0 0 0 0 0 0 0 0 0 0 "/>
</feComponentTransfer>
<feComposite operator="in" in2="shape" in="coloredNoise1" result="noise1Clipped" />
<feFlood flood-color="rgba(44, 45, 51, 0.26)" result="color1Flood" />
<feComposite operator="in" in2="noise1Clipped" in="color1Flood" result="color1" />
<feMerge result="effect1_noise_1070_2216">
<feMergeNode in="shape" />
<feMergeNode in="color1" />
</feMerge>
</filter>
<linearGradient id="paint0_linear_1070_2216" x1="279.794" y1="28.4333" x2="264.096" y2="103.222" gradientUnits="userSpaceOnUse">
<stop stop-color="#828699"/>
<stop offset="1" stop-color="#2C2D33"/>
</linearGradient>
<linearGradient id="paint1_linear_1070_2216" x1="279.794" y1="28.4333" x2="264.096" y2="103.222" gradientUnits="userSpaceOnUse">
<stop stop-color="#828699"/>
<stop offset="1" stop-color="#2C2D33"/>
</linearGradient>
<linearGradient id="paint2_linear_1070_2216" x1="279.794" y1="28.4333" x2="264.096" y2="103.222" gradientUnits="userSpaceOnUse">
<stop stop-color="#828699"/>
<stop offset="1" stop-color="#2C2D33"/>
</linearGradient>
<linearGradient id="paint3_linear_1070_2216" x1="279.794" y1="28.4337" x2="264.096" y2="103.223" gradientUnits="userSpaceOnUse">
<stop stop-color="#828699"/>
<stop offset="1" stop-color="#2C2D33"/>
</linearGradient>
<linearGradient id="paint4_linear_1070_2216" x1="279.794" y1="28.4333" x2="264.096" y2="103.222" gradientUnits="userSpaceOnUse">
<stop stop-color="#828699"/>
<stop offset="1" stop-color="#2C2D33"/>
</linearGradient>
<linearGradient id="paint5_linear_1070_2216" x1="279.794" y1="28.4333" x2="264.096" y2="103.222" gradientUnits="userSpaceOnUse">
<stop stop-color="#828699"/>
<stop offset="1" stop-color="#2C2D33"/>
</linearGradient>
<linearGradient id="paint6_linear_1070_2216" x1="279.794" y1="28.4333" x2="264.096" y2="103.222" gradientUnits="userSpaceOnUse">
<stop stop-color="#828699"/>
<stop offset="1" stop-color="#2C2D33"/>
</linearGradient>
<linearGradient id="paint7_linear_1070_2216" x1="30.3423" y1="98.3304" x2="504.573" y2="-1.60548" gradientUnits="userSpaceOnUse">
<stop offset="0.023182" stop-color="#E0DFE6"/>
<stop offset="0.343" stop-color="#D0D1E4"/>
<stop offset="0.511591" stop-color="#C8C9E3"/>
<stop offset="0.878217" stop-color="#ECF0FF"/>
</linearGradient>
<linearGradient id="paint8_linear_1070_2216" x1="30.3421" y1="98.3304" x2="504.572" y2="-1.60547" gradientUnits="userSpaceOnUse">
<stop offset="0.023182" stop-color="#E0DFE6"/>
<stop offset="0.343" stop-color="#D0D1E4"/>
<stop offset="0.511591" stop-color="#C8C9E3"/>
<stop offset="0.878217" stop-color="#ECF0FF"/>
</linearGradient>
<linearGradient id="paint9_linear_1070_2216" x1="30.3421" y1="98.3304" x2="504.572" y2="-1.60547" gradientUnits="userSpaceOnUse">
<stop offset="0.023182" stop-color="#E0DFE6"/>
<stop offset="0.343" stop-color="#D0D1E4"/>
<stop offset="0.511591" stop-color="#C8C9E3"/>
<stop offset="0.878217" stop-color="#ECF0FF"/>
</linearGradient>
<linearGradient id="paint10_linear_1070_2216" x1="30.3422" y1="98.3308" x2="504.573" y2="-1.60508" gradientUnits="userSpaceOnUse">
<stop offset="0.023182" stop-color="#E0DFE6"/>
<stop offset="0.343" stop-color="#D0D1E4"/>
<stop offset="0.511591" stop-color="#C8C9E3"/>
<stop offset="0.878217" stop-color="#ECF0FF"/>
</linearGradient>
<linearGradient id="paint11_linear_1070_2216" x1="30.3422" y1="98.3304" x2="504.573" y2="-1.60547" gradientUnits="userSpaceOnUse">
<stop offset="0.023182" stop-color="#E0DFE6"/>
<stop offset="0.343" stop-color="#D0D1E4"/>
<stop offset="0.511591" stop-color="#C8C9E3"/>
<stop offset="0.878217" stop-color="#ECF0FF"/>
</linearGradient>
<linearGradient id="paint12_linear_1070_2216" x1="30.3421" y1="98.3304" x2="504.572" y2="-1.60547" gradientUnits="userSpaceOnUse">
<stop offset="0.023182" stop-color="#E0DFE6"/>
<stop offset="0.343" stop-color="#D0D1E4"/>
<stop offset="0.511591" stop-color="#C8C9E3"/>
<stop offset="0.878217" stop-color="#ECF0FF"/>
</linearGradient>
<linearGradient id="paint13_linear_1070_2216" x1="30.3422" y1="98.3304" x2="504.573" y2="-1.60548" gradientUnits="userSpaceOnUse">
<stop offset="0.023182" stop-color="#E0DFE6"/>
<stop offset="0.343" stop-color="#D0D1E4"/>
<stop offset="0.511591" stop-color="#C8C9E3"/>
<stop offset="0.878217" stop-color="#ECF0FF"/>
</linearGradient>
</defs>
</svg>
