<svg width="394" height="105" viewBox="0 0 394 105" fill="none" xmlns="http://www.w3.org/2000/svg">
<path d="M345.705 104.419C324.086 104.419 308.967 89.3005 308.967 65.2799C308.967 41.6831 324.793 25.5752 345.422 25.5752C365.345 25.5752 379.757 39.705 379.757 65.8451H329.879C330.445 83.0834 338.357 91.2786 350.368 91.2786C359.411 91.2786 366.758 85.4854 369.443 75.5946H380.605C377.073 93.822 363.791 104.419 345.705 104.419ZM344.998 36.7377C337.509 36.7377 332.14 42.6722 330.445 55.1064H358.563C357.574 42.8135 352.487 36.7377 344.998 36.7377Z" fill="url(#paint0_linear_1070_2225)"/>
<path d="M303.063 47.4763C300.378 46.7699 297.552 46.346 294.585 46.346C284.694 46.346 279.183 52.2805 279.183 64.4321V102.3H259.26V27.6947H278.053V48.1828C281.727 34.1944 291.335 25.7165 303.063 25.5752V47.4763Z" fill="url(#paint1_linear_1070_2225)"/>
<path d="M197.692 104.278C184.693 104.278 175.791 96.2241 175.791 84.7789C175.791 73.0512 182.573 65.8451 199.67 62.03C215.92 58.4976 220.017 54.9651 220.017 49.0306C220.017 43.52 215.072 38.8572 206.594 38.8572C197.692 38.8572 190.91 44.5091 189.214 54.1173H178.052C180.171 36.7377 193.312 25.5752 211.681 25.5752C229.767 25.5752 241.212 36.3138 241.212 52.2805V84.2138C241.212 89.8657 243.331 92.1264 248.559 92.409V102.3C246.299 103.148 242.766 103.713 238.951 103.713C228.778 103.713 223.126 98.7674 221.713 90.7135C217.474 99.1913 208.996 104.278 197.692 104.278ZM206.029 91.1373C214.93 91.1373 221.289 84.6376 221.289 74.6055V61.4648C218.887 65.1386 214.507 67.9645 207.583 70.3666C199.246 73.3338 195.997 77.2902 195.997 82.3769C195.997 87.6049 199.812 91.1373 206.029 91.1373Z" fill="url(#paint2_linear_1070_2225)"/>
<path d="M97.127 102.3V2.26074H117.05V40.4111C121.148 31.2268 129.625 25.5749 139.799 25.5749C154.07 25.5749 163.819 36.0309 163.819 51.8562V102.3H143.896V54.2583C143.896 44.6501 139.375 39.422 131.038 39.422C122.843 39.422 117.05 46.6282 117.05 58.9211V102.3H97.127Z" fill="url(#paint3_linear_1070_2225)"/>
<path d="M43.661 104.702C18.3687 104.702 2.40206 91.5609 0 69.5185H13.4233C16.1079 83.0831 26.2814 90.4305 42.3893 90.4305C55.53 90.4305 62.4536 85.0612 62.4536 77.2899C62.4536 70.9315 58.356 66.5512 46.7695 63.8666L31.6507 60.6167C13.1407 56.6604 3.53244 46.0631 3.53244 31.0855C3.53244 13.282 18.51 0 39.4221 0C61.8884 0 76.4421 11.869 79.1267 32.0746H65.986C63.584 20.7708 54.3996 13.8472 40.835 13.8472C29.3899 13.8472 23.1728 19.3578 23.1728 26.7053C23.1728 33.4876 27.8357 37.7265 38.5743 40.1286L53.4105 43.2371C74.3226 47.7586 83.0831 57.2256 83.0831 73.0509C83.0831 90.7131 66.5512 104.702 43.661 104.702Z" fill="url(#paint4_linear_1070_2225)"/>
<g filter="url(#filter0_n_1070_2225)">
<path d="M358.952 104.419C337.333 104.419 322.214 89.3005 322.214 65.2799C322.214 41.6831 338.04 25.5752 358.669 25.5752C378.592 25.5752 393.005 39.705 393.005 65.8451H343.126C343.692 83.0834 351.604 91.2786 363.615 91.2786C372.658 91.2786 380.005 85.4854 382.69 75.5946H393.852C390.32 93.822 377.038 104.419 358.952 104.419ZM358.245 36.7377C350.757 36.7377 345.387 42.6722 343.692 55.1064H371.81C370.821 42.8135 365.734 36.7377 358.245 36.7377Z" fill="url(#paint5_linear_1070_2225)"/>
</g>
<g filter="url(#filter1_n_1070_2225)">
<path d="M316.31 47.4763C313.625 46.7699 310.799 46.346 307.832 46.346C297.941 46.346 292.43 52.2805 292.43 64.4321V102.3H272.507V27.6947H291.3V48.1828C294.974 34.1944 304.582 25.7165 316.31 25.5752V47.4763Z" fill="url(#paint6_linear_1070_2225)"/>
</g>
<g filter="url(#filter2_n_1070_2225)">
<path d="M210.939 104.278C197.94 104.278 189.038 96.2241 189.038 84.7789C189.038 73.0512 195.82 65.8451 212.917 62.03C229.166 58.4976 233.264 54.9651 233.264 49.0306C233.264 43.52 228.319 38.8572 219.841 38.8572C210.939 38.8572 204.157 44.5091 202.461 54.1173H191.299C193.418 36.7377 206.559 25.5752 224.927 25.5752C243.014 25.5752 254.459 36.3138 254.459 52.2805V84.2138C254.459 89.8657 256.578 92.1264 261.806 92.409V102.3C259.545 103.148 256.013 103.713 252.198 103.713C242.025 103.713 236.373 98.7674 234.96 90.7135C230.721 99.1913 222.243 104.278 210.939 104.278ZM219.276 91.1373C228.177 91.1373 234.536 84.6376 234.536 74.6055V61.4648C232.134 65.1386 227.753 67.9645 220.83 70.3666C212.493 73.3338 209.243 77.2902 209.243 82.3769C209.243 87.6049 213.058 91.1373 219.276 91.1373Z" fill="url(#paint7_linear_1070_2225)"/>
</g>
<g filter="url(#filter3_n_1070_2225)">
<path d="M110.374 102.3V2.26074H130.297V40.4111C134.394 31.2268 142.872 25.5749 153.045 25.5749C167.317 25.5749 177.066 36.0309 177.066 51.8562V102.3H157.143V54.2583C157.143 44.6501 152.622 39.422 144.285 39.422C136.09 39.422 130.297 46.6282 130.297 58.9211V102.3H110.374Z" fill="url(#paint8_linear_1070_2225)"/>
</g>
<g filter="url(#filter4_n_1070_2225)">
<path d="M56.9078 104.702C31.6155 104.702 15.6489 91.5609 13.2468 69.5185H26.6701C29.3548 83.0831 39.5282 90.4305 55.6361 90.4305C68.7768 90.4305 75.7004 85.0612 75.7004 77.2899C75.7004 70.9315 71.6028 66.5512 60.0164 63.8666L44.8975 60.6167C26.3875 56.6604 16.7793 46.0631 16.7793 31.0855C16.7793 13.282 31.7568 0 52.6689 0C75.1352 0 89.6889 11.869 92.3736 32.0746H79.2329C76.8308 20.7708 67.6465 13.8472 54.0819 13.8472C42.6368 13.8472 36.4197 19.3578 36.4197 26.7053C36.4197 33.4876 41.0825 37.7265 51.8211 40.1286L66.6574 43.2371C87.5694 47.7586 96.3299 57.2256 96.3299 73.0509C96.3299 90.7131 79.7981 104.702 56.9078 104.702Z" fill="url(#paint9_linear_1070_2225)"/>
</g>
<defs>
<filter id="filter0_n_1070_2225" x="322.214" y="25.5752" width="71.6382" height="78.8438" filterUnits="userSpaceOnUse" color-interpolation-filters="sRGB">
<feFlood flood-opacity="0" result="BackgroundImageFix"/>
<feBlend mode="normal" in="SourceGraphic" in2="BackgroundImageFix" result="shape"/>
<feTurbulence type="fractalNoise" baseFrequency="3.377216100692749 3.377216100692749" stitchTiles="stitch" numOctaves="3" result="noise" seed="7265" />
<feColorMatrix in="noise" type="luminanceToAlpha" result="alphaNoise" />
<feComponentTransfer in="alphaNoise" result="coloredNoise1">
<feFuncA type="discrete" tableValues="0 0 0 0 0 0 0 0 0 0 0 0 1 1 1 1 1 1 1 1 1 1 1 1 1 1 1 1 1 1 1 1 1 1 1 1 1 1 0 0 0 0 0 0 0 0 0 0 0 0 0 0 0 0 0 0 0 0 0 0 0 0 0 0 0 0 0 0 0 0 0 0 0 0 0 0 0 0 0 0 0 0 0 0 0 0 0 0 0 0 0 0 0 0 0 0 0 0 0 0 "/>
</feComponentTransfer>
<feComposite operator="in" in2="shape" in="coloredNoise1" result="noise1Clipped" />
<feFlood flood-color="rgba(44, 45, 51, 0.26)" result="color1Flood" />
<feComposite operator="in" in2="noise1Clipped" in="color1Flood" result="color1" />
<feMerge result="effect1_noise_1070_2225">
<feMergeNode in="shape" />
<feMergeNode in="color1" />
</feMerge>
</filter>
<filter id="filter1_n_1070_2225" x="272.507" y="25.5752" width="43.8022" height="76.7246" filterUnits="userSpaceOnUse" color-interpolation-filters="sRGB">
<feFlood flood-opacity="0" result="BackgroundImageFix"/>
<feBlend mode="normal" in="SourceGraphic" in2="BackgroundImageFix" result="shape"/>
<feTurbulence type="fractalNoise" baseFrequency="3.377216100692749 3.377216100692749" stitchTiles="stitch" numOctaves="3" result="noise" seed="7265" />
<feColorMatrix in="noise" type="luminanceToAlpha" result="alphaNoise" />
<feComponentTransfer in="alphaNoise" result="coloredNoise1">
<feFuncA type="discrete" tableValues="0 0 0 0 0 0 0 0 0 0 0 0 1 1 1 1 1 1 1 1 1 1 1 1 1 1 1 1 1 1 1 1 1 1 1 1 1 1 0 0 0 0 0 0 0 0 0 0 0 0 0 0 0 0 0 0 0 0 0 0 0 0 0 0 0 0 0 0 0 0 0 0 0 0 0 0 0 0 0 0 0 0 0 0 0 0 0 0 0 0 0 0 0 0 0 0 0 0 0 0 "/>
</feComponentTransfer>
<feComposite operator="in" in2="shape" in="coloredNoise1" result="noise1Clipped" />
<feFlood flood-color="rgba(44, 45, 51, 0.26)" result="color1Flood" />
<feComposite operator="in" in2="noise1Clipped" in="color1Flood" result="color1" />
<feMerge result="effect1_noise_1070_2225">
<feMergeNode in="shape" />
<feMergeNode in="color1" />
</feMerge>
</filter>
<filter id="filter2_n_1070_2225" x="189.038" y="25.5752" width="72.7683" height="78.7031" filterUnits="userSpaceOnUse" color-interpolation-filters="sRGB">
<feFlood flood-opacity="0" result="BackgroundImageFix"/>
<feBlend mode="normal" in="SourceGraphic" in2="BackgroundImageFix" result="shape"/>
<feTurbulence type="fractalNoise" baseFrequency="3.377216100692749 3.377216100692749" stitchTiles="stitch" numOctaves="3" result="noise" seed="7265" />
<feColorMatrix in="noise" type="luminanceToAlpha" result="alphaNoise" />
<feComponentTransfer in="alphaNoise" result="coloredNoise1">
<feFuncA type="discrete" tableValues="0 0 0 0 0 0 0 0 0 0 0 0 1 1 1 1 1 1 1 1 1 1 1 1 1 1 1 1 1 1 1 1 1 1 1 1 1 1 0 0 0 0 0 0 0 0 0 0 0 0 0 0 0 0 0 0 0 0 0 0 0 0 0 0 0 0 0 0 0 0 0 0 0 0 0 0 0 0 0 0 0 0 0 0 0 0 0 0 0 0 0 0 0 0 0 0 0 0 0 0 "/>
</feComponentTransfer>
<feComposite operator="in" in2="shape" in="coloredNoise1" result="noise1Clipped" />
<feFlood flood-color="rgba(44, 45, 51, 0.26)" result="color1Flood" />
<feComposite operator="in" in2="noise1Clipped" in="color1Flood" result="color1" />
<feMerge result="effect1_noise_1070_2225">
<feMergeNode in="shape" />
<feMergeNode in="color1" />
</feMerge>
</filter>
<filter id="filter3_n_1070_2225" x="110.374" y="2.26074" width="66.6926" height="100.039" filterUnits="userSpaceOnUse" color-interpolation-filters="sRGB">
<feFlood flood-opacity="0" result="BackgroundImageFix"/>
<feBlend mode="normal" in="SourceGraphic" in2="BackgroundImageFix" result="shape"/>
<feTurbulence type="fractalNoise" baseFrequency="3.377216100692749 3.377216100692749" stitchTiles="stitch" numOctaves="3" result="noise" seed="7265" />
<feColorMatrix in="noise" type="luminanceToAlpha" result="alphaNoise" />
<feComponentTransfer in="alphaNoise" result="coloredNoise1">
<feFuncA type="discrete" tableValues="0 0 0 0 0 0 0 0 0 0 0 0 1 1 1 1 1 1 1 1 1 1 1 1 1 1 1 1 1 1 1 1 1 1 1 1 1 1 0 0 0 0 0 0 0 0 0 0 0 0 0 0 0 0 0 0 0 0 0 0 0 0 0 0 0 0 0 0 0 0 0 0 0 0 0 0 0 0 0 0 0 0 0 0 0 0 0 0 0 0 0 0 0 0 0 0 0 0 0 0 "/>
</feComponentTransfer>
<feComposite operator="in" in2="shape" in="coloredNoise1" result="noise1Clipped" />
<feFlood flood-color="rgba(44, 45, 51, 0.26)" result="color1Flood" />
<feComposite operator="in" in2="noise1Clipped" in="color1Flood" result="color1" />
<feMerge result="effect1_noise_1070_2225">
<feMergeNode in="shape" />
<feMergeNode in="color1" />
</feMerge>
</filter>
<filter id="filter4_n_1070_2225" x="13.2468" y="0" width="83.083" height="104.701" filterUnits="userSpaceOnUse" color-interpolation-filters="sRGB">
<feFlood flood-opacity="0" result="BackgroundImageFix"/>
<feBlend mode="normal" in="SourceGraphic" in2="BackgroundImageFix" result="shape"/>
<feTurbulence type="fractalNoise" baseFrequency="3.377216100692749 3.377216100692749" stitchTiles="stitch" numOctaves="3" result="noise" seed="7265" />
<feColorMatrix in="noise" type="luminanceToAlpha" result="alphaNoise" />
<feComponentTransfer in="alphaNoise" result="coloredNoise1">
<feFuncA type="discrete" tableValues="0 0 0 0 0 0 0 0 0 0 0 0 1 1 1 1 1 1 1 1 1 1 1 1 1 1 1 1 1 1 1 1 1 1 1 1 1 1 0 0 0 0 0 0 0 0 0 0 0 0 0 0 0 0 0 0 0 0 0 0 0 0 0 0 0 0 0 0 0 0 0 0 0 0 0 0 0 0 0 0 0 0 0 0 0 0 0 0 0 0 0 0 0 0 0 0 0 0 0 0 "/>
</feComponentTransfer>
<feComposite operator="in" in2="shape" in="coloredNoise1" result="noise1Clipped" />
<feFlood flood-color="rgba(44, 45, 51, 0.26)" result="color1Flood" />
<feComposite operator="in" in2="noise1Clipped" in="color1Flood" result="color1" />
<feMerge result="effect1_noise_1070_2225">
<feMergeNode in="shape" />
<feMergeNode in="color1" />
</feMerge>
</filter>
<linearGradient id="paint0_linear_1070_2225" x1="211.327" y1="31.2631" x2="189.712" y2="105.439" gradientUnits="userSpaceOnUse">
<stop stop-color="#828699"/>
<stop offset="1" stop-color="#2C2D33"/>
</linearGradient>
<linearGradient id="paint1_linear_1070_2225" x1="211.327" y1="31.2631" x2="189.712" y2="105.439" gradientUnits="userSpaceOnUse">
<stop stop-color="#828699"/>
<stop offset="1" stop-color="#2C2D33"/>
</linearGradient>
<linearGradient id="paint2_linear_1070_2225" x1="211.327" y1="31.2631" x2="189.712" y2="105.439" gradientUnits="userSpaceOnUse">
<stop stop-color="#828699"/>
<stop offset="1" stop-color="#2C2D33"/>
</linearGradient>
<linearGradient id="paint3_linear_1070_2225" x1="211.327" y1="31.2628" x2="189.712" y2="105.439" gradientUnits="userSpaceOnUse">
<stop stop-color="#828699"/>
<stop offset="1" stop-color="#2C2D33"/>
</linearGradient>
<linearGradient id="paint4_linear_1070_2225" x1="211.327" y1="31.2628" x2="189.712" y2="105.439" gradientUnits="userSpaceOnUse">
<stop stop-color="#828699"/>
<stop offset="1" stop-color="#2C2D33"/>
</linearGradient>
<linearGradient id="paint5_linear_1070_2225" x1="29.8443" y1="103.3" x2="389.25" y2="48.7442" gradientUnits="userSpaceOnUse">
<stop offset="0.023182" stop-color="#E0DFE6"/>
<stop offset="0.343" stop-color="#D0D1E4"/>
<stop offset="0.511591" stop-color="#C8C9E3"/>
<stop offset="0.878217" stop-color="#ECF0FF"/>
</linearGradient>
<linearGradient id="paint6_linear_1070_2225" x1="29.8443" y1="103.3" x2="389.25" y2="48.7442" gradientUnits="userSpaceOnUse">
<stop offset="0.023182" stop-color="#E0DFE6"/>
<stop offset="0.343" stop-color="#D0D1E4"/>
<stop offset="0.511591" stop-color="#C8C9E3"/>
<stop offset="0.878217" stop-color="#ECF0FF"/>
</linearGradient>
<linearGradient id="paint7_linear_1070_2225" x1="29.8442" y1="103.3" x2="389.25" y2="48.7442" gradientUnits="userSpaceOnUse">
<stop offset="0.023182" stop-color="#E0DFE6"/>
<stop offset="0.343" stop-color="#D0D1E4"/>
<stop offset="0.511591" stop-color="#C8C9E3"/>
<stop offset="0.878217" stop-color="#ECF0FF"/>
</linearGradient>
<linearGradient id="paint8_linear_1070_2225" x1="29.8441" y1="103.3" x2="389.25" y2="48.7439" gradientUnits="userSpaceOnUse">
<stop offset="0.023182" stop-color="#E0DFE6"/>
<stop offset="0.343" stop-color="#D0D1E4"/>
<stop offset="0.511591" stop-color="#C8C9E3"/>
<stop offset="0.878217" stop-color="#ECF0FF"/>
</linearGradient>
<linearGradient id="paint9_linear_1070_2225" x1="29.8442" y1="103.3" x2="389.25" y2="48.7439" gradientUnits="userSpaceOnUse">
<stop offset="0.023182" stop-color="#E0DFE6"/>
<stop offset="0.343" stop-color="#D0D1E4"/>
<stop offset="0.511591" stop-color="#C8C9E3"/>
<stop offset="0.878217" stop-color="#ECF0FF"/>
</linearGradient>
</defs>
</svg>
