<svg width="51" height="58" viewBox="0 0 51 58" fill="none" xmlns="http://www.w3.org/2000/svg">
<path d="M25.6221 0.512108L27.6943 1.72109L29.6807 2.84414L31.7539 4.05312L33.7402 5.17519L35.8125 6.38515L37.9717 7.59414L40.0449 8.80312L42.4629 10.185L44.708 11.4799L47.127 12.8617L49.3721 14.1576L50.0625 14.5893L49.8037 16.8344L46.3496 43.435L45.917 43.8666L37.7129 49.2211L27.0039 56.2162L25.2764 57.3393L24.8447 57.1664L22.5996 55.6986L20.0947 54.057L18.3672 52.935L10.1631 47.5805L7.91699 46.1117L5.41309 44.4711L4.11719 43.6078L3.94434 42.7436L1.18066 21.4984L0.317383 14.7621L0.40332 14.5033L2.5625 13.2934L4.63574 12.0844L7.05371 10.7025L9.29883 9.40762L11.7178 8.02578L13.9629 6.72988L18.7988 3.96621L21.0449 2.67129L23.4629 1.28945L25.1035 0.339256L25.6221 0.512108ZM19.4922 45.5072L18.6289 46.2846L15.5195 49.1342L15.001 49.7387L15.6055 50.1713L19.5781 52.7621L21.5645 54.057L22.8604 54.9213L24.2422 55.7846L24.3281 55.6117L23.4648 53.4525L21.9971 49.7387L20.2695 45.3344L20.0107 45.0756L19.4922 45.5072ZM30.2012 45.1615L29.3369 47.3207L27.7822 51.2934L26.0557 55.6986L26.2285 55.7846L27.7822 54.7484L32.2734 51.8119L33.5693 50.9486L34.9512 50.0844L35.3828 49.6527L33.3096 47.7523L32.1875 46.7162L31.4961 46.1117L30.8057 45.4213L30.2871 45.0756L30.2012 45.1615ZM20.96 45.1615L21.3916 46.1986L23.292 51.0346L24.5879 54.3168L24.7598 54.5756V46.2846L24.0693 46.0258L20.96 44.9887V45.1615ZM25.624 46.2846V54.5756H25.71L25.8828 54.1439L27.6104 49.7387L29.4238 45.1615L29.3369 44.9887L25.624 46.2846ZM14.5693 39.2025L12.0645 40.3256L8.61035 41.8803L5.50098 43.2621L5.32813 43.435L7.40039 44.8168L13.8779 49.0482L14.3096 49.2211L14.6553 48.9623L16.7285 47.0619L17.5918 46.2846L18.6279 45.3344L19.751 44.2982L19.3193 43.435L18.0234 41.1889L16.6416 38.7709L16.2959 38.4252L14.5693 39.2025ZM33.6553 38.9437L32.3594 41.1889L31.1504 43.2621L30.6318 44.2982L31.1504 44.7299L32.2734 45.766L33.1367 46.5434L35.21 48.4437L36.0732 49.2211L36.5049 49.0482L43.2412 44.6439L44.71 43.6937L45.0547 43.348L35.9863 39.2895L34 38.4252L33.6553 38.9437ZM20.4424 22.6205V22.7934L20.96 25.2982L14.7422 24.2621L13.792 24.1752V24.5209L14.2236 25.9887L14.4834 26.6801L17.333 28.1479L19.2334 29.185L21.9102 30.5668L21.9971 30.8256L22.6875 34.3666H13.2744V34.5395L13.9648 35.1439L15.1738 36.1801L15.8652 36.7846L16.8145 37.6479L17.9375 39.5482L19.3193 41.9662L20.5283 44.0395L23.9834 45.2484L24.7607 45.4213V43.0893H24.1563L21.0469 43.435L20.96 42.7436L23.8965 42.3979L24.7607 42.226V41.1029L24.6738 41.016L22.2559 39.9799L21.4785 39.7211L21.8242 40.8441L21.1328 40.9301L20.0967 38.2523L20.3555 38.3393L23.292 39.6342L24.7607 40.2387L24.7607 22.6205H20.4424ZM25.624 22.6205L25.624 40.2387L26.7461 39.807L30.2012 38.2523V38.4252L29.251 40.9301L28.5596 40.8441L28.9053 39.807L28.7324 39.7211L25.624 41.1029V42.226L25.7959 42.3119L29.4238 42.7436V43.5209L29.251 43.435L27.0059 43.1752L25.624 43.0893V45.4213H25.8828L29.8555 44.0395L30.9785 42.1391L32.1875 40.0668L33.3965 37.9076L33.8281 37.476L35.124 36.266L36.0732 35.4887L36.9375 34.7123L37.1104 34.3666H27.6963L27.7822 34.0209L29.8555 23.5707L29.9414 22.6205H25.624ZM1.35547 16.5756L4.11914 37.8207L4.72363 42.3119H4.80957L5.24121 41.7934L9.90527 36.0932L10.5957 35.2299L11.6328 34.0209V33.2436L10.0781 23.5707L9.90527 23.225L8.95508 22.4486L7.91895 21.4984L6.96875 20.7211L5.93262 19.7709L4.98242 18.9936L4.03223 18.1303L3.08203 17.3529L2.0459 16.4027L1.35547 15.8842V16.5756ZM48.9414 15.8842L48.0771 16.6615L47.1279 17.4389L46.1777 18.3031L45.2275 19.0805L44.1914 20.0297L43.2412 20.807L42.2051 21.7572L41.2549 22.5346L40.3906 23.3119L40.2188 24.0893L38.75 33.3305V34.0209L41.8594 37.8207L42.5498 38.685L43.5869 39.8939L44.5361 41.1029L45.2275 41.8803L45.6592 42.3119L45.7461 41.7934L47.3867 29.185L49.0273 16.6615V15.8842H48.9414ZM11.46 35.4027L9.90625 37.3031L9.21484 38.1664L8.17871 39.3754L7.22852 40.5844L6.27832 41.7074L5.93359 42.226L6.27832 42.1391L11.8926 39.6342L15.5195 37.9936L15.7783 37.7348L14.7422 36.7846L13.792 36.0072L12.4971 34.7982L12.0645 34.6254L11.46 35.4027ZM37.542 35.1439L36.333 36.1801L35.6416 36.7846L34.6914 37.6479V37.9076L37.1963 39.0297L40.3057 40.4115L43.9326 42.0531L44.3643 42.1391L44.1914 41.7934L42.9824 40.3256L41.8604 38.9437L41.083 37.9936L39.874 36.5258L39.0967 35.5756L38.4053 34.7123L38.1465 34.6254L37.542 35.1439ZM11.6318 28.3207V28.6664L12.4092 33.5893H21.7363V33.2436L21.3047 31.0844L19.0596 29.8754L17.4189 29.0121L15.4326 27.975L14.0508 27.2846L11.6318 28.3207ZM35.9873 27.4574L33.4824 28.7523L31.583 29.7895L29.251 30.9984L28.9922 31.6029L28.6465 33.5893H37.9736L38.5781 29.7895L38.751 28.3207L36.7646 27.4574L36.0732 27.3705L35.9873 27.4574ZM36.2461 24.1752L30.2871 25.2123L30.2002 25.4711L29.7686 27.7162L29.3369 30.0482H29.5098L31.4092 29.0121L34.0869 27.6303L35.9863 26.5941L36.6777 24.1752H36.2461ZM10.8555 23.8305L11.46 27.5434H11.6328L13.6191 26.6801V26.5072L12.9277 24.1752L12.6689 23.9164L10.8555 23.6576V23.8305ZM39.2686 23.6576L37.542 24.0023L37.0234 25.6439L36.7646 26.6801L38.1465 27.2846L38.9238 27.5434L39.0098 27.1117L39.5283 23.6576H39.2686ZM15.7783 16.4887L12.1514 21.4115L11.1152 22.7934L11.2881 22.9662L18.1104 24.0893L19.9238 24.348V24.1752L19.1465 20.2025L18.6289 17.7846L17.2471 17.0072L15.9512 16.3168L15.7783 16.4887ZM34.3467 16.3168L34.2598 16.4027L31.8418 17.6986L31.6689 18.0434L30.8916 22.016L30.46 24.348H31.0645L38.5781 23.0531L39.2695 22.8803L39.0098 22.4486L35.3828 17.5258L34.5195 16.3168H34.3467ZM10.3369 9.75234L6.10547 12.1713L4.03223 13.3803L1.87402 14.5893L1.44141 14.935L2.0459 15.4525L2.99609 16.2299L4.03223 17.1801L4.98242 17.9574L6.01855 18.9076L6.96875 19.685L8.00586 20.6342L8.95508 21.4115L9.99219 22.3617L10.4238 22.5346L10.8555 21.9301L11.9785 20.3754L13.2734 18.6479L14.3965 17.0941L15.6914 15.3666L16.5557 15.7982L18.1104 16.6615L20.5283 17.9574L22.5146 19.0805L24.5869 20.2025L24.8467 20.1166L24.7598 16.6615L24.6738 16.5756L23.8096 16.057L21.5645 14.7621L19.1465 13.3803L16.9004 12.0844L14.8281 10.8754L12.4961 9.58047L11.5459 9.06191L10.3369 9.75234ZM38.1465 9.40762L36.0732 10.6166L34.0869 11.7387L32.0146 12.9486L30.0283 14.0707L27.9551 15.2797L26.4004 16.1439L25.624 16.6615V20.2025H25.7959L26.9189 19.598L28.9053 18.475L31.3232 17.1801L33.3096 16.057L34.6914 15.3666L35.21 16.057L38.8369 20.9799L39.96 22.5346H40.1328L41.083 21.7572L40.9961 21.4984L38.5781 18.2162L37.7148 17.0072L36.5918 15.5395L35.9873 14.5893L39.874 12.4301L41.083 11.8256L42.0322 13.1205L43.2422 14.7621L44.1055 15.9711L44.1914 16.3168L43.5869 17.6117L42.4648 19.9437L42.2051 20.7211L42.6377 20.3754L43.5869 19.598L44.624 18.6479L45.5732 17.8705L46.6104 16.9213L47.5596 16.1439L48.5098 15.2797L48.9414 14.848L44.4512 12.2572L42.0322 10.8754L39.96 9.6664L38.751 9.06191L38.1465 9.40762ZM19.8369 19.8578L20.2686 21.7572H24.7598V21.1527L24.1553 20.807L22.1689 19.685L20.0967 18.5619L19.5781 18.3891L19.8369 19.8578ZM30.6328 18.3891L30.0283 18.7348L27.6104 20.0297L25.624 21.1527V21.7572H30.2012L30.7188 19.1664L30.8057 18.3891H30.6328ZM40.6504 12.8617L38.3184 14.1576L37.1094 14.848L37.4551 15.4525L39.873 18.7348L40.9961 20.2895L41.3418 20.6342L41.7734 19.7709L43.2412 16.5756L43.3281 16.1439L43.1553 15.8842L42.0322 14.3305L41.1689 13.2074L40.7363 12.7758L40.6504 12.8617ZM24.5869 1.54824L22.5137 2.75723L20.2686 4.05312L18.6279 5.00234L16.4688 6.2123L14.3955 7.42129L12.4092 8.54336L12.4961 8.71621L14.1367 9.6664L15.6045 10.5297L17.7637 11.7387L19.8369 12.9486L21.8232 14.0707L23.8955 15.2797L24.7588 15.7123L24.8457 1.89394L24.7588 1.54824H24.5869ZM25.624 15.7123L26.3145 15.3666L30.8057 12.7758L33.2236 11.3939L37.7148 8.80312L37.9736 8.54336L36.333 7.59414L33.9141 6.2123L31.8418 5.00234L29.6826 3.79336L27.6104 2.58437L26.0557 1.72109L25.624 1.54824V15.7123Z" fill="white"/>
<path d="M25.6221 0.512108L25.7787 0.243559L25.7509 0.227334L25.7204 0.217153L25.6221 0.512108ZM27.6943 1.72109L27.5376 1.98967L27.5413 1.99174L27.6943 1.72109ZM29.6807 2.84414L29.8373 2.57553L29.8337 2.57349L29.6807 2.84414ZM31.7539 4.05312L31.5973 4.32173L31.601 4.32383L31.7539 4.05312ZM33.7402 5.17519L33.897 4.90667L33.8932 4.90449L33.7402 5.17519ZM35.8125 6.38515L35.6557 6.65369L35.6606 6.65643L35.8125 6.38515ZM37.9717 7.59414L38.1283 7.32552L38.1236 7.32286L37.9717 7.59414ZM40.0449 8.80312L39.8883 9.07171L39.8907 9.07306L40.0449 8.80312ZM42.4629 10.185L42.6182 9.91563L42.6172 9.91502L42.4629 10.185ZM44.708 11.4799L44.5527 11.7492L44.5538 11.7498L44.708 11.4799ZM47.127 12.8617L47.2824 12.5924L47.2812 12.5918L47.127 12.8617ZM49.3721 14.1576L49.537 13.8938L49.5275 13.8883L49.3721 14.1576ZM50.0625 14.5893L50.3714 14.6249L50.3939 14.4297L50.2273 14.3256L50.0625 14.5893ZM49.8037 16.8344L50.1121 16.8744L50.1126 16.87L49.8037 16.8344ZM46.3496 43.435L46.5692 43.6551L46.6443 43.5802L46.6579 43.475L46.3496 43.435ZM45.917 43.8666L46.0869 44.127L46.1138 44.1094L46.1366 44.0867L45.917 43.8666ZM37.7129 49.2211L37.543 48.9607L37.5429 48.9608L37.7129 49.2211ZM27.0039 56.2162L27.1734 56.4769L27.1739 56.4765L27.0039 56.2162ZM25.2764 57.3393L25.1608 57.6279L25.3106 57.6879L25.4458 57.5999L25.2764 57.3393ZM24.8447 57.1664L24.6746 57.4266L24.7005 57.4435L24.7291 57.455L24.8447 57.1664ZM22.5996 55.6986L22.4292 55.9587L22.4295 55.9589L22.5996 55.6986ZM20.0947 54.057L20.2652 53.797L20.2641 53.7963L20.0947 54.057ZM18.3672 52.935L18.1973 53.1953L18.1978 53.1957L18.3672 52.935ZM10.1631 47.5805L9.99293 47.8407L9.99316 47.8408L10.1631 47.5805ZM7.91699 46.1117L7.7466 46.3718L7.74683 46.3719L7.91699 46.1117ZM5.41309 44.4711L5.24071 44.7299L5.24269 44.7312L5.41309 44.4711ZM4.11719 43.6078L3.81231 43.6688L3.83758 43.7951L3.94482 43.8666L4.11719 43.6078ZM3.94434 42.7436L3.63602 42.7837L3.63739 42.7942L3.63946 42.8045L3.94434 42.7436ZM1.18066 21.4984L0.872275 21.538L0.872352 21.5385L1.18066 21.4984ZM0.317383 14.7621L0.0223164 14.6641L-1.06692e-05 14.7314L0.0089947 14.8016L0.317383 14.7621ZM0.40332 14.5033L0.25133 14.2321L0.146225 14.291L0.108254 14.4053L0.40332 14.5033ZM2.5625 13.2934L2.71451 13.5646L2.71912 13.5619L2.5625 13.2934ZM4.63574 12.0844L4.48147 11.8144L4.47912 11.8158L4.63574 12.0844ZM7.05371 10.7025L7.20798 10.9725L7.20905 10.9719L7.05371 10.7025ZM9.29883 9.40762L9.14461 9.13765L9.14349 9.13829L9.29883 9.40762ZM11.7178 8.02578L11.872 8.29575L11.8732 8.29505L11.7178 8.02578ZM13.9629 6.72988L13.8086 6.45994L13.8075 6.46061L13.9629 6.72988ZM18.7988 3.96621L18.9531 4.23615L18.9541 4.23556L18.7988 3.96621ZM21.0449 2.67129L20.8907 2.40135L20.8896 2.40193L21.0449 2.67129ZM23.4629 1.28945L23.6172 1.55939L23.6187 1.5585L23.4629 1.28945ZM25.1035 0.339256L25.2018 0.044301L25.0689 -1.57952e-06L24.9477 0.070212L25.1035 0.339256ZM19.4922 45.5072L19.2931 45.2681L19.2841 45.2762L19.4922 45.5072ZM18.6289 46.2846L18.4209 46.0535L18.4188 46.0554L18.6289 46.2846ZM15.5195 49.1342L15.3095 48.905L15.2957 48.9176L15.2836 48.9317L15.5195 49.1342ZM15.001 49.7387L14.765 49.5362L14.5439 49.7939L14.82 49.9915L15.001 49.7387ZM15.6055 50.1713L15.4244 50.4244L15.4356 50.4317L15.6055 50.1713ZM19.5781 52.7621L19.4083 53.0225L19.4083 53.0226L19.5781 52.7621ZM21.5645 54.057L21.737 53.7984L21.7342 53.7966L21.5645 54.057ZM22.8604 54.9213L22.6878 55.1801L22.6956 55.185L22.8604 54.9213ZM24.2422 55.7846L24.0775 56.0483L24.368 56.2298L24.5206 55.923L24.2422 55.7846ZM24.3281 55.6117L24.6065 55.7501L24.6685 55.6255L24.6168 55.4963L24.3281 55.6117ZM23.4648 53.4525L23.1757 53.5668L23.1762 53.568L23.4648 53.4525ZM21.9971 49.7387L21.7076 49.8522L21.7079 49.8529L21.9971 49.7387ZM20.2695 45.3344L20.559 45.2208L20.5353 45.1604L20.4894 45.1145L20.2695 45.3344ZM20.0107 45.0756L20.2306 44.8557L20.0299 44.6551L19.8118 44.8366L20.0107 45.0756ZM30.2012 45.1615L29.9813 44.9417L29.9362 44.9868L29.9125 45.046L30.2012 45.1615ZM29.3369 47.3207L29.0483 47.2052L29.0474 47.2074L29.3369 47.3207ZM27.7822 51.2934L28.0717 51.4068L28.0718 51.4067L27.7822 51.2934ZM26.0557 55.6986L25.7662 55.5852L25.6623 55.8503L25.9172 55.977L26.0557 55.6986ZM26.2285 55.7846L26.0901 56.063L26.2513 56.1431L26.401 56.0432L26.2285 55.7846ZM27.7822 54.7484L27.6121 54.4882L27.6097 54.4898L27.7822 54.7484ZM32.2734 51.8119L32.4436 52.0721L32.4458 52.0707L32.2734 51.8119ZM33.5693 50.9486L33.4044 50.6849L33.397 50.6899L33.5693 50.9486ZM34.9512 50.0844L35.116 50.348L35.146 50.3292L35.171 50.3042L34.9512 50.0844ZM35.3828 49.6527L35.6027 49.8726L35.8323 49.643L35.5929 49.4235L35.3828 49.6527ZM33.3096 47.7523L33.0986 47.9808L33.0995 47.9815L33.3096 47.7523ZM32.1875 46.7162L32.3985 46.4877L32.3921 46.4821L32.1875 46.7162ZM31.4961 46.1117L31.2762 46.3316L31.2836 46.3389L31.2915 46.3458L31.4961 46.1117ZM30.8057 45.4213L31.0255 45.2014L31.0037 45.1797L30.9781 45.1626L30.8057 45.4213ZM30.2871 45.0756L30.4596 44.8169L30.2475 44.6755L30.0673 44.8557L30.2871 45.0756ZM20.96 45.1615H20.6491V45.2236L20.6729 45.281L20.96 45.1615ZM21.3916 46.1986L21.681 46.0849L21.6786 46.0792L21.3916 46.1986ZM23.292 51.0346L23.0026 51.1483L23.0028 51.1487L23.292 51.0346ZM24.5879 54.3168L24.2987 54.431L24.3108 54.4615L24.3289 54.4888L24.5879 54.3168ZM24.7598 54.5756L24.5008 54.7476L25.0707 55.6057V54.5756H24.7598ZM24.7598 46.2846H25.0707V46.0691L24.8689 45.9934L24.7598 46.2846ZM24.0693 46.0258L24.1785 45.7345L24.1677 45.7308L24.0693 46.0258ZM20.96 44.9887L21.0583 44.6937L20.6491 44.5572V44.9887H20.96ZM25.624 46.2846L25.5216 45.991L25.3131 46.0638V46.2846H25.624ZM25.624 54.5756H25.3131V54.8865H25.624V54.5756ZM25.71 54.5756V54.8865H25.9204L25.9986 54.6912L25.71 54.5756ZM25.8828 54.1439L26.1714 54.2595L26.1723 54.2575L25.8828 54.1439ZM27.6104 49.7387L27.3213 49.6241L27.3209 49.6252L27.6104 49.7387ZM29.4238 45.1615L29.7129 45.276L29.7642 45.1464L29.7016 45.0219L29.4238 45.1615ZM29.3369 44.9887L29.6147 44.849L29.4921 44.6052L29.2345 44.6951L29.3369 44.9887ZM14.5693 39.2025L14.6965 39.4862L14.697 39.486L14.5693 39.2025ZM12.0645 40.3256L11.9373 40.0419L11.9368 40.0421L12.0645 40.3256ZM8.61035 41.8803L8.73662 42.1644L8.73796 42.1638L8.61035 41.8803ZM5.50098 43.2621L5.37471 42.978L5.32195 43.0014L5.28113 43.0423L5.50098 43.2621ZM5.32813 43.435L5.10828 43.2151L4.84014 43.4833L5.15563 43.6936L5.32813 43.435ZM7.40039 44.8168L7.22789 45.0755L7.23035 45.0771L7.40039 44.8168ZM13.8779 49.0482L13.7079 49.3085L13.7337 49.3254L13.7623 49.3369L13.8779 49.0482ZM14.3096 49.2211L14.194 49.5097L14.3561 49.5746L14.4959 49.47L14.3096 49.2211ZM14.6553 48.9623L14.8416 49.2112L14.854 49.2019L14.8654 49.1915L14.6553 48.9623ZM16.7285 47.0619L16.5205 46.8309L16.5184 46.8327L16.7285 47.0619ZM17.5918 46.2846L17.7999 46.5156L17.8019 46.5137L17.5918 46.2846ZM18.6279 45.3344L18.8381 45.5635L18.8388 45.5629L18.6279 45.3344ZM19.751 44.2982L19.9618 44.5268L20.1336 44.3683L20.0291 44.1592L19.751 44.2982ZM19.3193 43.435L19.5974 43.2959L19.5933 43.2876L19.5886 43.2796L19.3193 43.435ZM18.0234 41.1889L17.7535 41.3431L17.7541 41.3442L18.0234 41.1889ZM16.6416 38.7709L16.9115 38.6166L16.8909 38.5805L16.8614 38.5511L16.6416 38.7709ZM16.2959 38.4252L16.5157 38.2053L16.364 38.0536L16.1683 38.1417L16.2959 38.4252ZM33.6553 38.9437L33.3964 38.7716L33.3909 38.7798L33.386 38.7883L33.6553 38.9437ZM32.3594 41.1889L32.628 41.3455L32.6286 41.3443L32.3594 41.1889ZM31.1504 43.2621L30.8818 43.1055L30.8768 43.1141L30.8724 43.123L31.1504 43.2621ZM30.6318 44.2982L30.3538 44.1591L30.2435 44.3795L30.4329 44.5372L30.6318 44.2982ZM31.1504 44.7299L31.3612 44.5014L31.3554 44.496L31.3493 44.4909L31.1504 44.7299ZM32.2734 45.766L32.0626 45.9945L32.0654 45.9971L32.2734 45.766ZM33.1367 46.5434L33.3468 46.3142L33.3448 46.3123L33.1367 46.5434ZM35.21 48.4437L34.9999 48.673L35.0019 48.6748L35.21 48.4437ZM36.0732 49.2211L35.8652 49.4521L36.0091 49.5817L36.1888 49.5097L36.0732 49.2211ZM36.5049 49.0482L36.6205 49.3369L36.6492 49.3254L36.675 49.3085L36.5049 49.0482ZM43.2412 44.6439L43.0723 44.3829L43.0711 44.3837L43.2412 44.6439ZM44.71 43.6937L44.8788 43.9548L44.9067 43.9368L44.9301 43.9133L44.71 43.6937ZM45.0547 43.348L45.2748 43.5676L45.5931 43.2484L45.1817 43.0643L45.0547 43.348ZM35.9863 39.2895L36.1133 39.0057L36.1104 39.0044L35.9863 39.2895ZM34 38.4252L34.124 38.1401L33.8853 38.0362L33.7411 38.2531L34 38.4252ZM20.4424 22.6205V22.3096H20.1315V22.6205H20.4424ZM20.4424 22.7934H20.1315V22.8251L20.1379 22.8563L20.4424 22.7934ZM20.96 25.2982L20.9089 25.6049L21.3562 25.6795L21.2644 25.2353L20.96 25.2982ZM14.7422 24.2621L14.7933 23.9554L14.782 23.9535L14.7705 23.9525L14.7422 24.2621ZM13.792 24.1752L13.8203 23.8656L13.4811 23.8345V24.1752H13.792ZM13.792 24.5209H13.4811V24.5657L13.4937 24.6086L13.792 24.5209ZM14.2236 25.9887L13.9254 26.0764L13.9286 26.0873L13.9326 26.098L14.2236 25.9887ZM14.4834 26.6801L14.1924 26.7894L14.2345 26.9016L14.341 26.9565L14.4834 26.6801ZM17.333 28.1479L17.482 27.8749L17.4754 27.8715L17.333 28.1479ZM19.2334 29.185L19.0844 29.4579L19.0908 29.4612L19.2334 29.185ZM21.9102 30.5668L22.2049 30.4678L22.1648 30.3483L22.0528 30.2905L21.9102 30.5668ZM21.9971 30.8256L22.3022 30.7661L22.2983 30.746L22.2918 30.7266L21.9971 30.8256ZM22.6875 34.3666V34.6775H23.0649L22.9927 34.3071L22.6875 34.3666ZM13.2744 34.3666V34.0557H12.9635V34.3666H13.2744ZM13.2744 34.5395H12.9635V34.6805L13.0696 34.7734L13.2744 34.5395ZM13.9648 35.1439L13.76 35.3779L13.7625 35.38L13.9648 35.1439ZM15.1738 36.1801L15.3785 35.946L15.3762 35.944L15.1738 36.1801ZM15.8652 36.7846L16.0745 36.5545L16.0699 36.5505L15.8652 36.7846ZM16.8145 37.6479L17.0821 37.4897L17.0583 37.4493L17.0236 37.4178L16.8145 37.6479ZM17.9375 39.5482L18.2075 39.394L18.2052 39.3901L17.9375 39.5482ZM19.3193 41.9662L19.0494 42.1205L19.0508 42.1228L19.3193 41.9662ZM20.5283 44.0395L20.2597 44.1961L20.3175 44.2951L20.4256 44.3329L20.5283 44.0395ZM23.9834 45.2484L23.8807 45.5419L23.898 45.548L23.9159 45.5519L23.9834 45.2484ZM24.7607 45.4213L24.6933 45.7248L25.0717 45.8089V45.4213H24.7607ZM24.7607 43.0893H25.0717V42.7783H24.7607V43.0893ZM24.1563 43.0893V42.7783H24.139L24.1219 42.7803L24.1563 43.0893ZM21.0469 43.435L20.7384 43.4737L20.7766 43.7778L21.0812 43.744L21.0469 43.435ZM20.96 42.7436L20.9236 42.4348L20.6124 42.4714L20.6515 42.7823L20.96 42.7436ZM23.8965 42.3979L23.9328 42.7066L23.9451 42.7052L23.9571 42.7028L23.8965 42.3979ZM24.7607 42.226L24.8214 42.5309L25.0717 42.4811V42.226H24.7607ZM24.7607 41.1029H25.0717V40.9741L24.9806 40.8831L24.7607 41.1029ZM24.6738 41.016L24.8937 40.7962L24.8513 40.7538L24.7963 40.7302L24.6738 41.016ZM22.2559 39.9799L22.3783 39.6941L22.3664 39.689L22.3541 39.6849L22.2559 39.9799ZM21.4785 39.7211L21.5767 39.4261L21.0037 39.2353L21.1814 39.8126L21.4785 39.7211ZM21.8242 40.8441L21.8626 41.1527L22.2304 41.107L22.1214 40.7527L21.8242 40.8441ZM21.1328 40.9301L20.8429 41.0423L20.9304 41.2685L21.1712 41.2386L21.1328 40.9301ZM20.0967 38.2523L20.1957 37.9576L19.5676 37.7467L19.8067 38.3645L20.0967 38.2523ZM20.3555 38.3393L20.4809 38.0548L20.4679 38.049L20.4545 38.0445L20.3555 38.3393ZM23.292 39.6342L23.1665 39.9187L23.1737 39.9217L23.292 39.6342ZM24.7607 40.2387L24.6424 40.5262L25.0717 40.7028V40.2387H24.7607ZM24.7607 22.6205H25.0717V22.3096H24.7607V22.6205ZM25.624 22.6205V22.3096H25.3131V22.6205H25.624ZM25.624 40.2387H25.3131V40.6914L25.7357 40.5289L25.624 40.2387ZM26.7461 39.807L26.8577 40.0972L26.8658 40.0941L26.8737 40.0906L26.7461 39.807ZM30.2012 38.2523H30.5121V37.7715L30.0736 37.9688L30.2012 38.2523ZM30.2012 38.4252L30.4919 38.5355L30.5121 38.4822V38.4252H30.2012ZM29.251 40.9301L29.2126 41.2386L29.455 41.2687L29.5417 41.0403L29.251 40.9301ZM28.5596 40.8441L28.2646 40.7458L28.1446 41.1059L28.5212 41.1527L28.5596 40.8441ZM28.9053 39.807L29.2002 39.9053L29.2857 39.6489L29.0437 39.5286L28.9053 39.807ZM28.7324 39.7211L28.8708 39.4427L28.7398 39.3776L28.6061 39.437L28.7324 39.7211ZM25.624 41.1029L25.4977 40.8188L25.3131 40.9009V41.1029H25.624ZM25.624 42.226H25.3131V42.4181L25.485 42.5041L25.624 42.226ZM25.7959 42.3119L25.6569 42.59L25.7053 42.6142L25.7592 42.6206L25.7959 42.3119ZM29.4238 42.7436H29.7347V42.4674L29.4606 42.4348L29.4238 42.7436ZM29.4238 43.5209L29.2854 43.7993L29.7347 44.0227V43.5209H29.4238ZM29.251 43.435L29.3894 43.1566L29.3407 43.1324L29.2867 43.1261L29.251 43.435ZM27.0059 43.1752L27.0416 42.8663L27.0334 42.8654L27.0252 42.8649L27.0059 43.1752ZM25.624 43.0893L25.6433 42.7789L25.3131 42.7584V43.0893H25.624ZM25.624 45.4213H25.3131V45.7322H25.624V45.4213ZM25.8828 45.4213V45.7322H25.9353L25.985 45.7149L25.8828 45.4213ZM29.8555 44.0395L29.9576 44.3331L30.0652 44.2957L30.1231 44.1976L29.8555 44.0395ZM30.9785 42.1391L31.2462 42.2972L31.2471 42.2957L30.9785 42.1391ZM32.1875 40.0668L32.4561 40.2235L32.4588 40.2187L32.1875 40.0668ZM33.3965 37.9076L33.1766 37.6878L33.1462 37.7182L33.1252 37.7557L33.3965 37.9076ZM33.8281 37.476L33.6158 37.2486L33.6083 37.2561L33.8281 37.476ZM35.124 36.266L34.927 36.0255L34.9192 36.0319L34.9118 36.0388L35.124 36.266ZM36.0732 35.4887L36.2702 35.7292L36.2757 35.7247L36.281 35.72L36.0732 35.4887ZM36.9375 34.7123L37.1453 34.9436L37.1892 34.9041L37.2156 34.8513L36.9375 34.7123ZM37.1104 34.3666L37.3884 34.5056L37.6134 34.0557H37.1104V34.3666ZM27.6963 34.3666L27.3946 34.2916L27.2986 34.6775H27.6963V34.3666ZM27.7822 34.0209L28.084 34.0959L28.0857 34.0887L28.0872 34.0814L27.7822 34.0209ZM29.8555 23.5707L30.1604 23.6312L30.1636 23.6151L30.1651 23.5987L29.8555 23.5707ZM29.9414 22.6205L30.2511 22.6485L30.2817 22.3096H29.9414V22.6205ZM1.35547 16.5756H1.04456V16.5957L1.04716 16.6157L1.35547 16.5756ZM4.11914 37.8207L3.81083 37.8608L3.81101 37.8622L4.11914 37.8207ZM4.72363 42.3119L4.4155 42.3534L4.45177 42.6228H4.72363V42.3119ZM4.80957 42.3119V42.6228H4.9553L5.04853 42.5108L4.80957 42.3119ZM5.24121 41.7934L5.48018 41.9923L5.48184 41.9902L5.24121 41.7934ZM9.90527 36.0932L10.1459 36.2901L10.1481 36.2874L9.90527 36.0932ZM10.5957 35.2299L10.3596 35.0273L10.3529 35.0357L10.5957 35.2299ZM11.6328 34.0209L11.8688 34.2233L11.9437 34.136V34.0209H11.6328ZM11.6328 33.2436H11.9437V33.2187L11.9398 33.1942L11.6328 33.2436ZM10.0781 23.5707L10.3851 23.5214L10.3775 23.4743L10.3562 23.4317L10.0781 23.5707ZM9.90527 23.225L10.1834 23.086L10.1536 23.0264L10.102 22.9842L9.90527 23.225ZM8.95508 22.4486L8.74494 22.6778L8.75148 22.6838L8.75836 22.6894L8.95508 22.4486ZM7.91895 21.4984L8.12908 21.2693L8.12261 21.2634L8.11581 21.2578L7.91895 21.4984ZM6.96875 20.7211L6.75861 20.9502L6.76509 20.9562L6.77188 20.9617L6.96875 20.7211ZM5.93262 19.7709L6.14276 19.5418L6.13628 19.5358L6.12948 19.5303L5.93262 19.7709ZM4.98242 18.9936L4.77335 19.2237L4.77932 19.2291L4.78556 19.2342L4.98242 18.9936ZM4.03223 18.1303L4.2413 17.9002L4.23533 17.8947L4.22909 17.8896L4.03223 18.1303ZM3.08203 17.3529L2.87189 17.5821L2.87837 17.588L2.88516 17.5936L3.08203 17.3529ZM2.0459 16.4027L2.25604 16.1736L2.2448 16.1633L2.23261 16.1541L2.0459 16.4027ZM1.35547 15.8842L1.54218 15.6356L1.04456 15.2618V15.8842H1.35547ZM48.9414 15.8842V15.5733H48.8222L48.7335 15.653L48.9414 15.8842ZM48.0771 16.6615L48.2741 16.9021L48.2797 16.8975L48.2851 16.8927L48.0771 16.6615ZM47.1279 17.4389L46.9309 17.1983L46.9247 17.2034L46.9187 17.2089L47.1279 17.4389ZM46.1777 18.3031L46.3746 18.5438L46.3809 18.5386L46.3869 18.5331L46.1777 18.3031ZM45.2275 19.0805L45.0307 18.8398L45.0239 18.8453L45.0175 18.8512L45.2275 19.0805ZM44.1914 20.0297L44.3883 20.2703L44.395 20.2648L44.4014 20.2589L44.1914 20.0297ZM43.2412 20.807L43.0443 20.5664L43.0375 20.5719L43.0311 20.5779L43.2412 20.807ZM42.2051 21.7572L42.4019 21.9979L42.4087 21.9923L42.4152 21.9864L42.2051 21.7572ZM41.2549 22.5346L41.058 22.2939L41.0524 22.2985L41.047 22.3034L41.2549 22.5346ZM40.3906 23.3119L40.1827 23.0807L40.1086 23.1474L40.087 23.2448L40.3906 23.3119ZM40.2188 24.0893L39.9152 24.0221L39.9132 24.0312L39.9117 24.0405L40.2188 24.0893ZM38.75 33.3305L38.4429 33.2817L38.4391 33.3059V33.3305H38.75ZM38.75 34.0209H38.4391V34.1319L38.5094 34.2178L38.75 34.0209ZM41.8594 37.8207L42.1023 37.6266L42.1 37.6238L41.8594 37.8207ZM42.5498 38.685L42.3067 38.8791L42.3138 38.8874L42.5498 38.685ZM43.5869 39.8939L43.8317 39.7018L43.8229 39.6915L43.5869 39.8939ZM44.5361 41.1029L44.2916 41.2949L44.2975 41.3024L44.3038 41.3096L44.5361 41.1029ZM45.2275 41.8803L44.9952 42.0869L45.0013 42.0937L45.0077 42.1001L45.2275 41.8803ZM45.6592 42.3119L45.4393 42.5318L45.8661 42.9585L45.9658 42.3633L45.6592 42.3119ZM45.7461 41.7934L46.0529 41.8448L46.0544 41.8335L45.7461 41.7934ZM47.3867 29.185L47.0784 29.1446L47.0784 29.1448L47.3867 29.185ZM49.0273 16.6615L49.3356 16.7019L49.3383 16.6818V16.6615H49.0273ZM49.0273 15.8842H49.3383V15.5733H49.0273V15.8842ZM11.46 35.4027L11.7007 35.5996L11.7054 35.5936L11.46 35.4027ZM9.90625 37.3031L9.66553 37.1063L9.66358 37.1088L9.90625 37.3031ZM9.21484 38.1664L9.45105 38.3688L9.45752 38.3608L9.21484 38.1664ZM8.17871 39.3754L7.94242 39.1729L7.93426 39.1833L8.17871 39.3754ZM7.22852 40.5844L7.46602 40.7853L7.47296 40.7765L7.22852 40.5844ZM6.27832 41.7074L6.04097 41.5066L6.02936 41.5203L6.0194 41.5353L6.27832 41.7074ZM5.93359 42.226L5.67468 42.0539L5.229 42.7243L6.0096 42.5275L5.93359 42.226ZM6.27832 42.1391L6.35433 42.4405L6.38042 42.434L6.405 42.423L6.27832 42.1391ZM11.8926 39.6342L12.0193 39.9181L12.0207 39.9175L11.8926 39.6342ZM15.5195 37.9936L15.6477 38.2768L15.6993 38.2535L15.7394 38.2134L15.5195 37.9936ZM15.7783 37.7348L15.9982 37.9546L16.2277 37.725L15.9885 37.5056L15.7783 37.7348ZM14.7422 36.7846L14.9523 36.5554L14.9459 36.5495L14.9391 36.5439L14.7422 36.7846ZM13.792 36.0072L13.5798 36.2345L13.5873 36.2414L13.5951 36.2479L13.792 36.0072ZM12.4971 34.7982L12.7092 34.571L12.6666 34.5312L12.6124 34.5095L12.4971 34.7982ZM12.0645 34.6254L12.1798 34.3367L11.9626 34.2499L11.819 34.4345L12.0645 34.6254ZM37.542 35.1439L37.7443 35.38L37.7444 35.3799L37.542 35.1439ZM36.333 36.1801L36.1307 35.944L36.1284 35.946L36.333 36.1801ZM35.6416 36.7846L35.4369 36.5505L35.4325 36.5545L35.6416 36.7846ZM34.6914 37.6479L34.4823 37.4177L34.3805 37.5103V37.6479H34.6914ZM34.6914 37.9076H34.3805V38.109L34.5643 38.1914L34.6914 37.9076ZM37.1963 39.0297L37.0692 39.3134L37.07 39.3138L37.1963 39.0297ZM40.3057 40.4115L40.4339 40.1283L40.4319 40.1274L40.3057 40.4115ZM43.9326 42.0531L43.8044 42.3364L43.8369 42.3511L43.8719 42.358L43.9326 42.0531ZM44.3643 42.1391L44.3035 42.444L44.9263 42.568L44.6423 42L44.3643 42.1391ZM44.1914 41.7934L44.4695 41.6543L44.4538 41.6228L44.4314 41.5957L44.1914 41.7934ZM42.9824 40.3256L42.7411 40.5216L42.7424 40.5233L42.9824 40.3256ZM41.8604 38.9437L42.1017 38.7478L42.101 38.7469L41.8604 38.9437ZM41.083 37.9936L41.3237 37.7967L41.323 37.7959L41.083 37.9936ZM39.874 36.5258L39.6334 36.7226L39.634 36.7234L39.874 36.5258ZM39.0967 35.5756L38.854 35.77L38.856 35.7724L39.0967 35.5756ZM38.4053 34.7123L38.6479 34.5179L38.5908 34.4467L38.5043 34.4176L38.4053 34.7123ZM38.1465 34.6254L38.2455 34.3307L38.0781 34.2744L37.9441 34.3894L38.1465 34.6254ZM11.6318 28.3207L11.5094 28.0349L11.3209 28.1156V28.3207H11.6318ZM11.6318 28.6664H11.3209V28.6908L11.3247 28.7149L11.6318 28.6664ZM12.4092 33.5893L12.1021 33.6377L12.1435 33.9002H12.4092V33.5893ZM21.7363 33.5893V33.9002H22.0472V33.5893H21.7363ZM21.7363 33.2436H22.0472V33.2128L22.0412 33.1826L21.7363 33.2436ZM21.3047 31.0844L21.6096 31.0234L21.5809 30.88L21.4521 30.8106L21.3047 31.0844ZM19.0596 29.8754L19.207 29.6016L19.2043 29.6002L19.0596 29.8754ZM17.4189 29.0121L17.5637 28.737L17.5628 28.7365L17.4189 29.0121ZM15.4326 27.975L15.5765 27.6994L15.5716 27.6969L15.4326 27.975ZM14.0508 27.2846L14.1897 27.0064L14.0608 26.942L13.9284 26.9988L14.0508 27.2846ZM35.9873 27.4574L36.1301 27.7336L36.1738 27.711L36.2084 27.676L35.9873 27.4574ZM33.4824 28.7523L33.3396 28.4761L33.3334 28.4795L33.4824 28.7523ZM31.583 29.7895L31.7261 30.0655L31.732 30.0623L31.583 29.7895ZM29.251 30.9984L29.1079 30.7224L29.009 30.7737L28.9652 30.8761L29.251 30.9984ZM28.9922 31.6029L28.7064 31.4806L28.6921 31.5139L28.6859 31.5496L28.9922 31.6029ZM28.6465 33.5893L28.3402 33.5359L28.2768 33.9002H28.6465V33.5893ZM37.9736 33.5893V33.9002H38.239L38.2807 33.6381L37.9736 33.5893ZM38.5781 29.7895L38.8854 29.8383L38.8869 29.8258L38.5781 29.7895ZM38.751 28.3207L39.0598 28.357L39.0868 28.1276L38.8749 28.0356L38.751 28.3207ZM36.7646 27.4574L36.8886 27.1723L36.8477 27.1545L36.8034 27.1489L36.7646 27.4574ZM36.0732 27.3705L36.112 27.062L35.9599 27.0429L35.8522 27.1519L36.0732 27.3705ZM36.2461 24.1752V23.8643H36.2192L36.1928 23.8689L36.2461 24.1752ZM30.2871 25.2123L30.2338 24.906L30.0513 24.9378L29.9924 25.1133L30.2871 25.2123ZM30.2002 25.4711L29.9055 25.3721L29.8988 25.3919L29.8949 25.4124L30.2002 25.4711ZM29.7686 27.7162L29.4632 27.6575L29.4628 27.6596L29.7686 27.7162ZM29.3369 30.0482L29.0312 29.9917L28.9632 30.3591H29.3369V30.0482ZM29.5098 30.0482V30.3591H29.5891L29.6587 30.3212L29.5098 30.0482ZM31.4092 29.0121L31.2666 28.7357L31.2603 28.7392L31.4092 29.0121ZM34.0869 27.6303L34.2295 27.9066L34.2358 27.9032L34.0869 27.6303ZM35.9863 26.5941L36.1352 26.8671L36.2495 26.8047L36.2853 26.6796L35.9863 26.5941ZM36.6777 24.1752L36.9767 24.2606L37.09 23.8643H36.6777V24.1752ZM10.8555 23.8305H10.5446V23.8556L10.5486 23.8804L10.8555 23.8305ZM11.46 27.5434L11.1531 27.5933L11.1956 27.8543H11.46V27.5434ZM11.6328 27.5434V27.8543H11.6975L11.7567 27.8285L11.6328 27.5434ZM13.6191 26.6801L13.7431 26.9652L13.9301 26.884V26.6801H13.6191ZM13.6191 26.5072H13.9301V26.4621L13.9172 26.4188L13.6191 26.5072ZM12.9277 24.1752L13.2258 24.0868L13.2034 24.0112L13.1476 23.9553L12.9277 24.1752ZM12.6689 23.9164L12.8888 23.6966L12.8155 23.6233L12.7129 23.6086L12.6689 23.9164ZM10.8555 23.6576L10.8994 23.3498L10.5446 23.2992V23.6576H10.8555ZM39.2686 23.6576V23.3467H39.2378L39.2077 23.3527L39.2686 23.6576ZM37.542 24.0023L37.4811 23.6975L37.3009 23.7334L37.2455 23.9087L37.542 24.0023ZM37.0234 25.6439L36.727 25.5503L36.7241 25.5594L36.7218 25.5686L37.0234 25.6439ZM36.7646 26.6801L36.463 26.6047L36.3993 26.8596L36.64 26.9649L36.7646 26.6801ZM38.1465 27.2846L38.0219 27.5694L38.0348 27.5751L38.0483 27.5796L38.1465 27.2846ZM38.9238 27.5434L38.8256 27.8384L39.16 27.9497L39.2288 27.6041L38.9238 27.5434ZM39.0098 27.1117L39.3147 27.1724L39.3161 27.1652L39.3172 27.1579L39.0098 27.1117ZM39.5283 23.6576L39.8358 23.7038L39.8894 23.3467H39.5283V23.6576ZM15.7783 16.4887L15.5591 16.2682L15.5422 16.285L15.528 16.3043L15.7783 16.4887ZM12.1514 21.4115L12.4001 21.598L12.4017 21.5959L12.1514 21.4115ZM11.1152 22.7934L10.8665 22.6068L10.7047 22.8226L10.8954 23.0132L11.1152 22.7934ZM11.2881 22.9662L11.0682 23.1861L11.1389 23.2568L11.2376 23.273L11.2881 22.9662ZM18.1104 24.0893L18.0598 24.3961L18.0664 24.397L18.1104 24.0893ZM19.9238 24.348L19.8799 24.6558L20.2347 24.7065V24.348H19.9238ZM19.9238 24.1752H20.2347V24.1451L20.229 24.1155L19.9238 24.1752ZM19.1465 20.2025L19.4517 20.1428L19.4505 20.1375L19.1465 20.2025ZM18.6289 17.7846L18.9329 17.7195L18.9036 17.5824L18.7813 17.5136L18.6289 17.7846ZM17.2471 17.0072L17.3995 16.7362L17.3933 16.7328L17.2471 17.0072ZM15.9512 16.3168L16.0974 16.0424L15.8947 15.9344L15.7319 16.0963L15.9512 16.3168ZM34.3467 16.3168V16.0059H34.2189L34.1281 16.0957L34.3467 16.3168ZM34.2598 16.4027L34.4066 16.6768L34.4463 16.6555L34.4784 16.6238L34.2598 16.4027ZM31.8418 17.6986L31.6949 17.4246L31.608 17.4712L31.5639 17.5593L31.8418 17.6986ZM31.6689 18.0434L31.391 17.904L31.372 17.942L31.3638 17.9837L31.6689 18.0434ZM30.8916 22.016L30.5865 21.9563L30.5859 21.9594L30.8916 22.016ZM30.46 24.348L30.1542 24.2915L30.0862 24.659H30.46V24.348ZM31.0645 24.348V24.659H31.091L31.1173 24.6544L31.0645 24.348ZM38.5781 23.0531L38.6309 23.3595L38.6423 23.3576L38.6535 23.3548L38.5781 23.0531ZM39.2695 22.8803L39.3449 23.1819L39.7526 23.08L39.5359 22.72L39.2695 22.8803ZM39.0098 22.4486L39.2762 22.2883L39.2687 22.2759L39.2601 22.2642L39.0098 22.4486ZM35.3828 17.5258L35.1298 17.7065L35.1325 17.7102L35.3828 17.5258ZM34.5195 16.3168L34.7726 16.1361L34.6796 16.0059H34.5195V16.3168ZM10.3369 9.75234L10.1827 9.48236L10.1826 9.48242L10.3369 9.75234ZM6.10547 12.1713L5.95116 11.9014L5.94885 11.9027L6.10547 12.1713ZM4.03223 13.3803L4.1842 13.6516L4.18885 13.6489L4.03223 13.3803ZM1.87402 14.5893L1.72207 14.318L1.69984 14.3305L1.67993 14.3464L1.87402 14.5893ZM1.44141 14.935L1.24732 14.6921L0.953711 14.9267L1.23919 15.1711L1.44141 14.935ZM2.0459 15.4525L1.84364 15.6888L1.84903 15.6932L2.0459 15.4525ZM2.99609 16.2299L3.20623 16.0007L3.19976 15.9948L3.19296 15.9892L2.99609 16.2299ZM4.03223 17.1801L3.82209 17.4092L3.82856 17.4152L3.83536 17.4207L4.03223 17.1801ZM4.98242 17.9574L5.19256 17.7283L5.18609 17.7223L5.17929 17.7168L4.98242 17.9574ZM6.01855 18.9076L5.80842 19.1368L5.81489 19.1427L5.82169 19.1483L6.01855 18.9076ZM6.96875 19.685L7.17866 19.4556L7.1723 19.4498L7.16562 19.4443L6.96875 19.685ZM8.00586 20.6342L7.79595 20.8635L7.80225 20.8693L7.80887 20.8747L8.00586 20.6342ZM8.95508 21.4115L9.16511 21.1823L9.15874 21.1764L9.15207 21.171L8.95508 21.4115ZM9.99219 22.3617L9.78216 22.591L9.82397 22.6293L9.87661 22.6503L9.99219 22.3617ZM10.4238 22.5346L10.3082 22.8232L10.5349 22.914L10.6769 22.7152L10.4238 22.5346ZM10.8555 21.9301L10.6034 21.748L10.6024 21.7494L10.8555 21.9301ZM11.9785 20.3754L11.7297 20.1889L11.7265 20.1933L11.9785 20.3754ZM13.2734 18.6479L13.5223 18.8344L13.5254 18.83L13.2734 18.6479ZM14.3965 17.0941L14.1477 16.9076L14.1445 16.912L14.3965 17.0941ZM15.6914 15.3666L15.8303 15.0885L15.5982 14.9725L15.4426 15.1801L15.6914 15.3666ZM16.5557 15.7982L16.7067 15.5262L16.6946 15.5201L16.5557 15.7982ZM18.1104 16.6615L17.9594 16.9334L17.9635 16.9356L18.1104 16.6615ZM20.5283 17.9574L20.6814 17.6867L20.6752 17.6834L20.5283 17.9574ZM22.5146 19.0805L22.3616 19.3512L22.3666 19.3539L22.5146 19.0805ZM24.5869 20.2025L24.4389 20.4759L24.557 20.5399L24.6846 20.4977L24.5869 20.2025ZM24.8467 20.1166L24.9443 20.4118L25.1633 20.3393L25.1575 20.1088L24.8467 20.1166ZM24.7598 16.6615L25.0706 16.6537L25.0675 16.5295L24.9796 16.4417L24.7598 16.6615ZM24.6738 16.5756L24.8937 16.3557L24.8666 16.3287L24.8338 16.309L24.6738 16.5756ZM23.8096 16.057L23.9696 15.7904L23.9649 15.7877L23.8096 16.057ZM21.5645 14.7621L21.7198 14.4928L21.7187 14.4922L21.5645 14.7621ZM19.1465 13.3803L18.9911 13.6496L18.9922 13.6502L19.1465 13.3803ZM16.9004 12.0844L16.7437 12.3529L16.745 12.3537L16.9004 12.0844ZM14.8281 10.8754L14.9848 10.6068L14.9791 10.6036L14.8281 10.8754ZM12.4961 9.58047L12.647 9.30864L12.645 9.30755L12.4961 9.58047ZM11.5459 9.06191L11.6948 8.789L11.5425 8.70584L11.3917 8.79193L11.5459 9.06191ZM38.1465 9.40762L37.9921 9.13771L37.9899 9.13904L38.1465 9.40762ZM36.0732 10.6166L36.2262 10.8873L36.2299 10.8852L36.0732 10.6166ZM34.0869 11.7387L33.934 11.4679L33.9301 11.4702L34.0869 11.7387ZM32.0146 12.9486L32.1676 13.2194L32.1714 13.2171L32.0146 12.9486ZM30.0283 14.0707L29.8754 13.8L29.8717 13.8021L30.0283 14.0707ZM27.9551 15.2797L28.1062 15.5515L28.1117 15.5483L27.9551 15.2797ZM26.4004 16.1439L26.2493 15.8722L26.2384 15.8783L26.2279 15.8853L26.4004 16.1439ZM25.624 16.6615L25.4516 16.4028L25.3131 16.4951V16.6615H25.624ZM25.624 20.2025H25.3131V20.5134H25.624V20.2025ZM25.7959 20.2025V20.5134H25.8743L25.9433 20.4763L25.7959 20.2025ZM26.9189 19.598L27.0663 19.8719L27.072 19.8687L26.9189 19.598ZM28.9053 18.475L28.7585 18.2008L28.7523 18.2044L28.9053 18.475ZM31.3232 17.1801L31.4701 17.4542L31.4763 17.4507L31.3232 17.1801ZM33.3096 16.057L33.1706 15.7789L33.1635 15.7825L33.1566 15.7864L33.3096 16.057ZM34.6914 15.3666L34.94 15.1799L34.7843 14.9726L34.5524 15.0885L34.6914 15.3666ZM35.21 16.057L35.4603 15.8726L35.4586 15.8703L35.21 16.057ZM38.8369 20.9799L39.089 20.7978L39.0872 20.7955L38.8369 20.9799ZM39.96 22.5346L39.7079 22.7166L39.801 22.8455H39.96V22.5346ZM40.1328 22.5346V22.8455H40.2438L40.3297 22.7752L40.1328 22.5346ZM41.083 21.7572L41.2799 21.9979L41.4461 21.8619L41.3777 21.6582L41.083 21.7572ZM40.9961 21.4984L41.2908 21.3995L41.2753 21.3533L41.2464 21.314L40.9961 21.4984ZM38.5781 18.2162L38.3251 18.3969L38.3278 18.4006L38.5781 18.2162ZM37.7148 17.0072L37.968 16.8265L37.9618 16.8183L37.7148 17.0072ZM36.5918 15.5395L36.3295 15.7063L36.3367 15.7177L36.3449 15.7284L36.5918 15.5395ZM35.9873 14.5893L35.8363 14.3175L35.5479 14.4777L35.725 14.7561L35.9873 14.5893ZM39.874 12.4301L39.7348 12.1517L39.723 12.1583L39.874 12.4301ZM41.083 11.8256L41.3338 11.6418L41.1786 11.4302L40.944 11.5475L41.083 11.8256ZM42.0322 13.1205L41.7815 13.3043L41.782 13.305L42.0322 13.1205ZM43.2422 14.7621L43.4952 14.5814L43.4925 14.5776L43.2422 14.7621ZM44.1055 15.9711L44.4072 15.8961L44.3929 15.8386L44.3585 15.7904L44.1055 15.9711ZM44.1914 16.3168L44.4731 16.4483L44.5197 16.3486L44.4931 16.2418L44.1914 16.3168ZM43.5869 17.6117L43.8671 17.7465L43.8686 17.7432L43.5869 17.6117ZM42.4648 19.9437L42.1847 19.8089L42.1762 19.8266L42.17 19.8452L42.4648 19.9437ZM42.2051 20.7211L41.9102 20.6226L41.5764 21.6215L42.3992 20.964L42.2051 20.7211ZM42.6377 20.3754L42.8318 20.6183L42.8347 20.6159L42.6377 20.3754ZM43.5869 19.598L43.7839 19.8386L43.7906 19.8331L43.7969 19.8273L43.5869 19.598ZM44.624 18.6479L44.427 18.4073L44.4204 18.4128L44.414 18.4186L44.624 18.6479ZM45.5732 17.8705L45.7702 18.111L45.7768 18.1056L45.7832 18.0999L45.5732 17.8705ZM46.6104 16.9213L46.4134 16.6807L46.4067 16.6862L46.4004 16.6919L46.6104 16.9213ZM47.5596 16.1439L47.7566 16.3845L47.7628 16.3794L47.7688 16.3739L47.5596 16.1439ZM48.5098 15.2797L48.719 15.5097L48.7244 15.5047L48.7296 15.4995L48.5098 15.2797ZM48.9414 14.848L49.1613 15.0679L49.4478 14.7813L49.0968 14.5787L48.9414 14.848ZM44.4512 12.2572L44.6066 11.9879L44.6054 11.9873L44.4512 12.2572ZM42.0322 10.8754L41.8755 11.1439L41.878 11.1454L42.0322 10.8754ZM39.96 9.6664L40.1166 9.39786L40.108 9.3928L40.099 9.38832L39.96 9.6664ZM38.751 9.06191L38.89 8.78383L38.7411 8.70938L38.5966 8.79202L38.751 9.06191ZM19.8369 19.8578L19.5307 19.9118L19.532 19.9193L19.5337 19.9267L19.8369 19.8578ZM20.2686 21.7572L19.9654 21.8261L20.0204 22.0681H20.2686V21.7572ZM24.7598 21.7572V22.0681H25.0707V21.7572H24.7598ZM24.7598 21.1527H25.0707V20.9724L24.9141 20.8828L24.7598 21.1527ZM24.1553 20.807L24.3096 20.5371L24.3082 20.5363L24.1553 20.807ZM22.1689 19.685L22.3219 19.4142L22.3171 19.4116L22.1689 19.685ZM20.0967 18.5619L20.2448 18.2886L20.2209 18.2756L20.195 18.267L20.0967 18.5619ZM19.5781 18.3891L19.6764 18.0941L19.1814 17.9291L19.2719 18.443L19.5781 18.3891ZM30.6328 18.3891V18.0782H30.5502L30.4785 18.1192L30.6328 18.3891ZM30.0283 18.7348L30.1752 19.009L30.1827 19.0047L30.0283 18.7348ZM27.6104 20.0297L27.4635 19.7555L27.4573 19.759L27.6104 20.0297ZM25.624 21.1527L25.471 20.8821L25.3131 20.9714V21.1527H25.624ZM25.624 21.7572H25.3131V22.0681H25.624V21.7572ZM30.2012 21.7572V22.0681H30.4561L30.5061 21.8181L30.2012 21.7572ZM30.7188 19.1664L31.0236 19.2273L31.0263 19.2142L31.0277 19.201L30.7188 19.1664ZM30.8057 18.3891L31.1146 18.4236L31.1533 18.0782H30.8057V18.3891ZM40.6504 12.8617L40.8014 13.1335L40.8395 13.1123L40.8702 13.0816L40.6504 12.8617ZM38.3184 14.1576L38.1673 13.8858L38.1642 13.8876L38.3184 14.1576ZM37.1094 14.848L36.9552 14.5781L36.685 14.7323L36.8395 15.0024L37.1094 14.848ZM37.4551 15.4525L37.1852 15.6069L37.1941 15.6225L37.2048 15.6369L37.4551 15.4525ZM39.873 18.7348L40.1251 18.5527L40.1234 18.5504L39.873 18.7348ZM40.9961 20.2895L40.7441 20.4715L40.7588 20.4919L40.7766 20.5096L40.9961 20.2895ZM41.3418 20.6342L41.1223 20.8543L41.4273 21.1585L41.6199 20.7732L41.3418 20.6342ZM41.7734 19.7709L42.0517 19.91L42.056 19.9007L41.7734 19.7709ZM43.2412 16.5756L43.5237 16.7054L43.5389 16.6725L43.546 16.637L43.2412 16.5756ZM43.3281 16.1439L43.6329 16.2053L43.6584 16.079L43.587 15.9717L43.3281 16.1439ZM43.1553 15.8842L43.4143 15.7118L43.4072 15.702L43.1553 15.8842ZM42.0322 14.3305L42.2843 14.1483L42.2787 14.141L42.0322 14.3305ZM41.1689 13.2074L41.4154 13.0179L41.403 13.0017L41.3885 12.9873L41.1689 13.2074ZM40.7363 12.7758L40.9559 12.5557L40.7361 12.3363L40.5165 12.5559L40.7363 12.7758ZM24.5869 1.54824V1.23733H24.5029L24.4303 1.27966L24.5869 1.54824ZM22.5137 2.75723L22.6691 3.0265L22.6703 3.02581L22.5137 2.75723ZM20.2686 4.05312L20.1131 3.78385L20.1129 3.78401L20.2686 4.05312ZM18.6279 5.00234L18.7799 5.27359L18.7836 5.27146L18.6279 5.00234ZM16.4688 6.2123L16.3167 5.94104L16.3121 5.94372L16.4688 6.2123ZM14.3955 7.42129L14.5484 7.69202L14.5521 7.68987L14.3955 7.42129ZM12.4092 8.54336L12.2563 8.27265L11.9983 8.41836L12.1314 8.68303L12.4092 8.54336ZM12.4961 8.71621L12.2183 8.85588L12.26 8.93876L12.3403 8.98525L12.4961 8.71621ZM14.1367 9.6664L14.2943 9.39841L14.2925 9.39736L14.1367 9.6664ZM15.6045 10.5297L15.4468 10.7977L15.4526 10.801L15.6045 10.5297ZM17.7637 11.7387L17.9204 11.4701L17.9156 11.4674L17.7637 11.7387ZM19.8369 12.9486L19.6802 13.2172L19.684 13.2193L19.8369 12.9486ZM21.8232 14.0707L21.9799 13.8021L21.9762 13.8L21.8232 14.0707ZM23.8955 15.2797L23.7388 15.5482L23.7474 15.5532L23.7562 15.5576L23.8955 15.2797ZM24.7588 15.7123L24.6195 15.9903L25.0665 16.2143L25.0697 15.7143L24.7588 15.7123ZM24.8457 1.89394L25.1566 1.8959L25.1569 1.85642L25.1472 1.81814L24.8457 1.89394ZM24.7588 1.54824L25.0603 1.47243L25.0012 1.23733H24.7588V1.54824ZM25.624 15.7123H25.3131V16.2157L25.7632 15.9903L25.624 15.7123ZM26.3145 15.3666L26.4537 15.6446L26.4619 15.6405L26.4698 15.6359L26.3145 15.3666ZM30.8057 12.7758L30.6514 12.5058L30.6503 12.5065L30.8057 12.7758ZM33.2236 11.3939L33.3779 11.6639L33.379 11.6633L33.2236 11.3939ZM37.7148 8.80312L37.8702 9.07244L37.906 9.05181L37.9351 9.02256L37.7148 8.80312ZM37.9736 8.54336L38.1939 8.76279L38.479 8.47657L38.1293 8.27424L37.9736 8.54336ZM36.333 7.59414L36.4887 7.32502L36.4872 7.32417L36.333 7.59414ZM33.9141 6.2123L33.7573 6.48081L33.7598 6.48227L33.9141 6.2123ZM31.8418 5.00234L31.9986 4.73381L31.9937 4.73106L31.8418 5.00234ZM29.6826 3.79336L29.5259 4.06195L29.5307 4.06464L29.6826 3.79336ZM27.6104 2.58437L27.7671 2.31576L27.7613 2.31256L27.6104 2.58437ZM26.0557 1.72109L26.2066 1.44928L26.1895 1.43976L26.1712 1.43246L26.0557 1.72109ZM25.624 1.54824L25.7396 1.25961L25.3131 1.08882V1.54824H25.624ZM25.6221 0.512108L25.4654 0.780656L27.5377 1.98964L27.6943 1.72109L27.851 1.45254L25.7787 0.243559L25.6221 0.512108ZM27.6943 1.72109L27.5413 1.99174L29.5276 3.11479L29.6807 2.84414L29.8337 2.57349L27.8474 1.45045L27.6943 1.72109ZM29.6807 2.84414L29.524 3.11272L31.5973 4.3217L31.7539 4.05312L31.9105 3.78454L29.8373 2.57556L29.6807 2.84414ZM31.7539 4.05312L31.601 4.32383L33.5873 5.4459L33.7402 5.17519L33.8932 4.90449L31.9068 3.78242L31.7539 4.05312ZM33.7402 5.17519L33.5835 5.44369L35.6557 6.65365L35.8125 6.38515L35.9693 6.11666L33.897 4.9067L33.7402 5.17519ZM35.8125 6.38515L35.6606 6.65643L37.8198 7.86542L37.9717 7.59414L38.1236 7.32286L35.9644 6.11388L35.8125 6.38515ZM37.9717 7.59414L37.8151 7.86272L39.8883 9.0717L40.0449 8.80312L40.2015 8.53454L38.1283 7.32556L37.9717 7.59414ZM40.0449 8.80312L39.8907 9.07306L42.3086 10.4549L42.4629 10.185L42.6172 9.91502L40.1992 8.53319L40.0449 8.80312ZM42.4629 10.185L42.3076 10.4543L44.5527 11.7492L44.708 11.4799L44.8633 11.2106L42.6182 9.91564L42.4629 10.185ZM44.708 11.4799L44.5538 11.7498L46.9727 13.1317L47.127 12.8617L47.2812 12.5918L44.8622 11.2099L44.708 11.4799ZM47.127 12.8617L46.9715 13.131L49.2166 14.4269L49.3721 14.1576L49.5275 13.8883L47.2824 12.5924L47.127 12.8617ZM49.3721 14.1576L49.2073 14.4212L49.8977 14.8529L50.0625 14.5893L50.2273 14.3256L49.5369 13.894L49.3721 14.1576ZM50.0625 14.5893L49.7536 14.5537L49.4948 16.7988L49.8037 16.8344L50.1126 16.87L50.3714 14.6249L50.0625 14.5893ZM49.8037 16.8344L49.4954 16.7943L46.0413 43.3949L46.3496 43.435L46.6579 43.475L50.112 16.8744L49.8037 16.8344ZM46.3496 43.435L46.13 43.2149L45.6974 43.6465L45.917 43.8666L46.1366 44.0867L46.5692 43.6551L46.3496 43.435ZM45.917 43.8666L45.7471 43.6062L37.543 48.9607L37.7129 49.2211L37.8828 49.4815L46.0869 44.127L45.917 43.8666ZM37.7129 49.2211L37.5429 48.9608L26.8339 55.9559L27.0039 56.2162L27.1739 56.4765L37.8829 49.4814L37.7129 49.2211ZM27.0039 56.2162L26.8344 55.9555L25.1069 57.0786L25.2764 57.3393L25.4458 57.5999L27.1734 56.4769L27.0039 56.2162ZM25.2764 57.3393L25.3919 57.0506L24.9603 56.8778L24.8447 57.1664L24.7291 57.455L25.1608 57.6279L25.2764 57.3393ZM24.8447 57.1664L25.0149 56.9062L22.7697 55.4384L22.5996 55.6986L22.4295 55.9589L24.6746 57.4266L24.8447 57.1664ZM22.5996 55.6986L22.77 55.4386L20.2651 53.797L20.0947 54.057L19.9243 54.3171L22.4292 55.9587L22.5996 55.6986ZM20.0947 54.057L20.2641 53.7963L18.5365 52.6742L18.3672 52.935L18.1978 53.1957L19.9254 54.3178L20.0947 54.057ZM18.3672 52.935L18.5371 52.6746L10.333 47.3201L10.1631 47.5805L9.99316 47.8408L18.1973 53.1953L18.3672 52.935ZM10.1631 47.5805L10.3332 47.3203L8.08715 45.8515L7.91699 46.1117L7.74683 46.3719L9.99293 47.8407L10.1631 47.5805ZM7.91699 46.1117L8.08739 45.8517L5.58348 44.211L5.41309 44.4711L5.24269 44.7312L7.7466 46.3718L7.91699 46.1117ZM5.41309 44.4711L5.58546 44.2123L4.28956 43.3491L4.11719 43.6078L3.94482 43.8666L5.24071 44.7298L5.41309 44.4711ZM4.11719 43.6078L4.42206 43.5468L4.24921 42.6826L3.94434 42.7436L3.63946 42.8045L3.81231 43.6688L4.11719 43.6078ZM3.94434 42.7436L4.25265 42.7034L1.48898 21.4583L1.18066 21.4984L0.872352 21.5385L3.63602 42.7837L3.94434 42.7436ZM1.18066 21.4984L1.48905 21.4589L0.625771 14.7226L0.317383 14.7621L0.0089947 14.8016L0.872276 21.538L1.18066 21.4984ZM0.317383 14.7621L0.612449 14.8601L0.698387 14.6013L0.40332 14.5033L0.108254 14.4053L0.0223164 14.6641L0.317383 14.7621ZM0.40332 14.5033L0.555311 14.7745L2.71449 13.5646L2.5625 13.2934L2.41051 13.0221L0.25133 14.2321L0.40332 14.5033ZM2.5625 13.2934L2.71912 13.5619L4.79236 12.353L4.63574 12.0844L4.47912 11.8158L2.40588 13.0248L2.5625 13.2934ZM4.63574 12.0844L4.79001 12.3543L7.20798 10.9725L7.05371 10.7025L6.89944 10.4326L4.48148 11.8144L4.63574 12.0844ZM7.05371 10.7025L7.20905 10.9719L9.45417 9.67694L9.29883 9.40762L9.14349 9.13829L6.89837 10.4332L7.05371 10.7025ZM9.29883 9.40762L9.45305 9.67758L11.872 8.29575L11.7178 8.02578L11.5636 7.75581L9.14461 9.13765L9.29883 9.40762ZM11.7178 8.02578L11.8732 8.29505L14.1183 6.99915L13.9629 6.72988L13.8075 6.46061L11.5623 7.75651L11.7178 8.02578ZM13.9629 6.72988L14.1172 6.99982L18.9531 4.23615L18.7988 3.96621L18.6446 3.69627L13.8086 6.45994L13.9629 6.72988ZM18.7988 3.96621L18.9541 4.23556L21.2002 2.94064L21.0449 2.67129L20.8896 2.40193L18.6435 3.69686L18.7988 3.96621ZM21.0449 2.67129L21.1992 2.94123L23.6172 1.55939L23.4629 1.28945L23.3086 1.01951L20.8907 2.40135L21.0449 2.67129ZM23.4629 1.28945L23.6187 1.5585L25.2593 0.608301L25.1035 0.339256L24.9477 0.070212L23.3071 1.02041L23.4629 1.28945ZM25.1035 0.339256L25.0052 0.634212L25.5238 0.807063L25.6221 0.512108L25.7204 0.217153L25.2018 0.044301L25.1035 0.339256ZM19.4922 45.5072L19.2841 45.2762L18.4209 46.0535L18.6289 46.2846L18.837 46.5156L19.7002 45.7383L19.4922 45.5072ZM18.6289 46.2846L18.4188 46.0554L15.3095 48.905L15.5195 49.1342L15.7296 49.3634L18.839 46.5138L18.6289 46.2846ZM15.5195 49.1342L15.2836 48.9317L14.765 49.5362L15.001 49.7387L15.237 49.9411L15.7555 49.3366L15.5195 49.1342ZM15.001 49.7387L14.82 49.9915L15.4245 50.4241L15.6055 50.1713L15.7864 49.9185L15.1819 49.4858L15.001 49.7387ZM15.6055 50.1713L15.4356 50.4317L19.4083 53.0225L19.5781 52.7621L19.748 52.5017L15.7753 49.9109L15.6055 50.1713ZM19.5781 52.7621L19.4083 53.0226L21.3947 54.3175L21.5645 54.057L21.7342 53.7966L19.7479 52.5017L19.5781 52.7621ZM21.5645 54.057L21.3919 54.3157L22.6878 55.18L22.8604 54.9213L23.0329 54.6626L21.737 53.7984L21.5645 54.057ZM22.8604 54.9213L22.6956 55.185L24.0775 56.0483L24.2422 55.7846L24.4069 55.5209L23.0251 54.6576L22.8604 54.9213ZM24.2422 55.7846L24.5206 55.923L24.6065 55.7501L24.3281 55.6117L24.0497 55.4733L23.9638 55.6462L24.2422 55.7846ZM24.3281 55.6117L24.6168 55.4963L23.7535 53.3371L23.4648 53.4525L23.1762 53.568L24.0394 55.7271L24.3281 55.6117ZM23.4648 53.4525L23.754 53.3383L22.2862 49.6244L21.9971 49.7387L21.7079 49.8529L23.1757 53.5668L23.4648 53.4525ZM21.9971 49.7387L22.2865 49.6251L20.559 45.2208L20.2695 45.3344L19.9801 45.4479L21.7076 49.8522L21.9971 49.7387ZM20.2695 45.3344L20.4894 45.1145L20.2306 44.8557L20.0107 45.0756L19.7909 45.2954L20.0497 45.5542L20.2695 45.3344ZM20.0107 45.0756L19.8118 44.8366L19.2933 45.2683L19.4922 45.5072L19.6911 45.7462L20.2097 45.3145L20.0107 45.0756ZM30.2012 45.1615L29.9125 45.046L29.0483 47.2052L29.3369 47.3207L29.6256 47.4362L30.4898 45.2771L30.2012 45.1615ZM29.3369 47.3207L29.0474 47.2074L27.4927 51.18L27.7822 51.2934L28.0718 51.4067L29.6264 47.434L29.3369 47.3207ZM27.7822 51.2934L27.4928 51.1799L25.7662 55.5852L26.0557 55.6986L26.3451 55.8121L28.0717 51.4068L27.7822 51.2934ZM26.0557 55.6986L25.9172 55.977L26.0901 56.063L26.2285 55.7846L26.3669 55.5062L26.1941 55.4202L26.0557 55.6986ZM26.2285 55.7846L26.401 56.0432L27.9547 55.0071L27.7822 54.7484L27.6097 54.4898L26.056 55.5259L26.2285 55.7846ZM27.7822 54.7484L27.9524 55.0087L32.4436 52.0721L32.2734 51.8119L32.1033 51.5517L27.6121 54.4882L27.7822 54.7484ZM32.2734 51.8119L32.4458 52.0707L33.7417 51.2074L33.5693 50.9486L33.397 50.6899L32.1011 51.5532L32.2734 51.8119ZM33.5693 50.9486L33.7342 51.2122L35.116 50.348L34.9512 50.0844L34.7863 49.8208L33.4045 50.685L33.5693 50.9486ZM34.9512 50.0844L35.171 50.3042L35.6027 49.8726L35.3828 49.6527L35.163 49.4329L34.7313 49.8645L34.9512 50.0844ZM35.3828 49.6527L35.5929 49.4235L33.5197 47.5231L33.3096 47.7523L33.0995 47.9815L35.1727 49.8819L35.3828 49.6527ZM33.3096 47.7523L33.5205 47.5239L32.3984 46.4878L32.1875 46.7162L31.9766 46.9446L33.0986 47.9808L33.3096 47.7523ZM32.1875 46.7162L32.3921 46.4821L31.7007 45.8777L31.4961 46.1117L31.2915 46.3458L31.9829 46.9503L32.1875 46.7162ZM31.4961 46.1117L31.7159 45.8919L31.0255 45.2014L30.8057 45.4213L30.5858 45.6411L31.2762 46.3316L31.4961 46.1117ZM30.8057 45.4213L30.9781 45.1626L30.4596 44.8169L30.2871 45.0756L30.1146 45.3343L30.6332 45.68L30.8057 45.4213ZM30.2871 45.0756L30.0673 44.8557L29.9813 44.9417L30.2012 45.1615L30.421 45.3814L30.507 45.2954L30.2871 45.0756ZM20.96 45.1615L20.6729 45.281L21.1046 46.3181L21.3916 46.1986L21.6786 46.0792L21.247 45.0421L20.96 45.1615ZM21.3916 46.1986L21.1022 46.3123L23.0026 51.1483L23.292 51.0346L23.5814 50.9209L21.681 46.0849L21.3916 46.1986ZM23.292 51.0346L23.0028 51.1487L24.2987 54.431L24.5879 54.3168L24.8771 54.2026L23.5812 50.9204L23.292 51.0346ZM24.5879 54.3168L24.3289 54.4888L24.5008 54.7476L24.7598 54.5756L25.0188 54.4036L24.8469 54.1448L24.5879 54.3168ZM24.7598 54.5756H25.0707V46.2846H24.7598H24.4489V54.5756H24.7598ZM24.7598 46.2846L24.8689 45.9934L24.1785 45.7346L24.0693 46.0258L23.9602 46.3169L24.6506 46.5757L24.7598 46.2846ZM24.0693 46.0258L24.1677 45.7308L21.0583 44.6937L20.96 44.9887L20.8616 45.2836L23.971 46.3207L24.0693 46.0258ZM20.96 44.9887H20.6491V45.1615H20.96H21.2709V44.9887H20.96ZM25.624 46.2846H25.3131V54.5756H25.624H25.9349V46.2846H25.624ZM25.624 54.5756V54.8865H25.71V54.5756V54.2647H25.624V54.5756ZM25.71 54.5756L25.9986 54.6912L26.1714 54.2595L25.8828 54.1439L25.5942 54.0284L25.4213 54.46L25.71 54.5756ZM25.8828 54.1439L26.1723 54.2575L27.8998 49.8522L27.6104 49.7387L27.3209 49.6252L25.5934 54.0304L25.8828 54.1439ZM27.6104 49.7387L27.8994 49.8532L29.7129 45.276L29.4238 45.1615L29.1348 45.047L27.3213 49.6241L27.6104 49.7387ZM29.4238 45.1615L29.7016 45.0219L29.6147 44.849L29.3369 44.9887L29.0591 45.1283L29.1461 45.3012L29.4238 45.1615ZM29.3369 44.9887L29.2345 44.6951L25.5216 45.991L25.624 46.2846L25.7265 46.5781L29.4394 45.2822L29.3369 44.9887ZM14.5693 39.2025L14.4421 38.9188L11.9373 40.0419L12.0645 40.3256L12.1916 40.6093L14.6965 39.4862L14.5693 39.2025ZM12.0645 40.3256L11.9368 40.0421L8.48274 41.5968L8.61035 41.8803L8.73796 42.1638L12.1921 40.6091L12.0645 40.3256ZM8.61035 41.8803L8.48409 41.5962L5.37471 42.978L5.50098 43.2621L5.62724 43.5462L8.73662 42.1644L8.61035 41.8803ZM5.50098 43.2621L5.28113 43.0423L5.10828 43.2151L5.32813 43.435L5.54797 43.6548L5.72082 43.482L5.50098 43.2621ZM5.32813 43.435L5.15563 43.6936L7.2279 45.0755L7.40039 44.8168L7.57288 44.5581L5.50062 43.1763L5.32813 43.435ZM7.40039 44.8168L7.23035 45.0771L13.7079 49.3085L13.8779 49.0482L14.048 48.7879L7.57043 44.5565L7.40039 44.8168ZM13.8779 49.0482L13.7623 49.3369L14.194 49.5097L14.3096 49.2211L14.4252 48.9325L13.9935 48.7596L13.8779 49.0482ZM14.3096 49.2211L14.4959 49.47L14.8416 49.2112L14.6553 48.9623L14.469 48.7134L14.1232 48.9722L14.3096 49.2211ZM14.6553 48.9623L14.8654 49.1915L16.9386 47.2911L16.7285 47.0619L16.5184 46.8327L14.4452 48.7331L14.6553 48.9623ZM16.7285 47.0619L16.9366 47.293L17.7998 46.5156L17.5918 46.2846L17.3838 46.0535L16.5205 46.8309L16.7285 47.0619ZM17.5918 46.2846L17.8019 46.5137L18.8381 45.5635L18.6279 45.3344L18.4178 45.1052L17.3817 46.0554L17.5918 46.2846ZM18.6279 45.3344L18.8388 45.5629L19.9618 44.5268L19.751 44.2982L19.5401 44.0697L18.4171 45.1059L18.6279 45.3344ZM19.751 44.2982L20.0291 44.1592L19.5974 43.2959L19.3193 43.435L19.0413 43.574L19.4729 44.4373L19.751 44.2982ZM19.3193 43.435L19.5886 43.2796L18.2927 41.0335L18.0234 41.1889L17.7541 41.3442L19.05 43.5903L19.3193 43.435ZM18.0234 41.1889L18.2934 41.0346L16.9115 38.6166L16.6416 38.7709L16.3717 38.9252L17.7535 41.3431L18.0234 41.1889ZM16.6416 38.7709L16.8614 38.5511L16.5157 38.2053L16.2959 38.4252L16.0761 38.645L16.4218 38.9907L16.6416 38.7709ZM16.2959 38.4252L16.1683 38.1417L14.4417 38.919L14.5693 39.2025L14.697 39.486L16.4235 38.7087L16.2959 38.4252ZM33.6553 38.9437L33.386 38.7883L32.0901 41.0334L32.3594 41.1889L32.6286 41.3443L33.9245 39.0992L33.6553 38.9437ZM32.3594 41.1889L32.0908 41.0322L30.8818 43.1055L31.1504 43.2621L31.419 43.4187L32.628 41.3455L32.3594 41.1889ZM31.1504 43.2621L30.8724 43.123L30.3538 44.1591L30.6318 44.2982L30.9099 44.4374L31.4284 43.4013L31.1504 43.2621ZM30.6318 44.2982L30.4329 44.5372L30.9515 44.9688L31.1504 44.7299L31.3493 44.4909L30.8307 44.0593L30.6318 44.2982ZM31.1504 44.7299L30.9396 44.9584L32.0626 45.9945L32.2734 45.766L32.4843 45.5375L31.3612 44.5014L31.1504 44.7299ZM32.2734 45.766L32.0654 45.9971L32.9287 46.7744L33.1367 46.5434L33.3448 46.3123L32.4815 45.535L32.2734 45.766ZM33.1367 46.5434L32.9266 46.7726L34.9999 48.6729L35.21 48.4437L35.42 48.2146L33.3468 46.3142L33.1367 46.5434ZM35.21 48.4437L35.0019 48.6748L35.8652 49.4521L36.0732 49.2211L36.2813 48.99L35.418 48.2127L35.21 48.4437ZM36.0732 49.2211L36.1888 49.5097L36.6205 49.3369L36.5049 49.0482L36.3893 48.7596L35.9577 48.9325L36.0732 49.2211ZM36.5049 49.0482L36.675 49.3085L43.4114 44.9042L43.2412 44.6439L43.0711 44.3837L36.3347 48.788L36.5049 49.0482ZM43.2412 44.6439L43.4101 44.905L44.8788 43.9548L44.71 43.6937L44.5411 43.4327L43.0723 44.3829L43.2412 44.6439ZM44.71 43.6937L44.9301 43.9133L45.2748 43.5676L45.0547 43.348L44.8345 43.1285L44.4898 43.4742L44.71 43.6937ZM45.0547 43.348L45.1817 43.0643L36.1133 39.0057L35.9863 39.2895L35.8593 39.5732L44.9277 43.6318L45.0547 43.348ZM35.9863 39.2895L36.1104 39.0044L34.124 38.1401L34 38.4252L33.876 38.7103L35.8623 39.5745L35.9863 39.2895ZM34 38.4252L33.7411 38.2531L33.3964 38.7716L33.6553 38.9437L33.9142 39.1159L34.2589 38.5973L34 38.4252ZM20.4424 22.6205H20.1315V22.7934H20.4424H20.7533V22.6205H20.4424ZM20.4424 22.7934L20.1379 22.8563L20.6555 25.3612L20.96 25.2982L21.2644 25.2353L20.7469 22.7304L20.4424 22.7934ZM20.96 25.2982L21.0111 24.9916L14.7933 23.9554L14.7422 24.2621L14.6911 24.5688L20.9089 25.6049L20.96 25.2982ZM14.7422 24.2621L14.7705 23.9525L13.8203 23.8656L13.792 24.1752L13.7637 24.4848L14.7139 24.5717L14.7422 24.2621ZM13.792 24.1752H13.4811V24.5209H13.792H14.1029V24.1752H13.792ZM13.792 24.5209L13.4937 24.6086L13.9254 26.0764L14.2236 25.9887L14.5219 25.901L14.0903 24.4332L13.792 24.5209ZM14.2236 25.9887L13.9326 26.098L14.1924 26.7894L14.4834 26.6801L14.7744 26.5707L14.5147 25.8793L14.2236 25.9887ZM14.4834 26.6801L14.341 26.9565L17.1906 28.4242L17.333 28.1479L17.4754 27.8715L14.6258 26.4037L14.4834 26.6801ZM17.333 28.1479L17.1841 28.4208L19.0845 29.4579L19.2334 29.185L19.3823 28.912L17.4819 27.8749L17.333 28.1479ZM19.2334 29.185L19.0908 29.4612L21.7675 30.8431L21.9102 30.5668L22.0528 30.2905L19.376 28.9087L19.2334 29.185ZM21.9102 30.5668L21.6154 30.6658L21.7023 30.9246L21.9971 30.8256L22.2918 30.7266L22.2049 30.4678L21.9102 30.5668ZM21.9971 30.8256L21.6919 30.8851L22.3823 34.4261L22.6875 34.3666L22.9927 34.3071L22.3022 30.7661L21.9971 30.8256ZM22.6875 34.3666V34.0557H13.2744V34.3666V34.6775H22.6875V34.3666ZM13.2744 34.3666H12.9635V34.5395H13.2744H13.5853V34.3666H13.2744ZM13.2744 34.5395L13.0696 34.7734L13.76 35.3779L13.9648 35.1439L14.1697 34.91L13.4792 34.3055L13.2744 34.5395ZM13.9648 35.1439L13.7625 35.38L14.9715 36.4161L15.1738 36.1801L15.3762 35.944L14.1672 34.9079L13.9648 35.1439ZM15.1738 36.1801L14.9692 36.4141L15.6606 37.0186L15.8652 36.7846L16.0699 36.5505L15.3785 35.946L15.1738 36.1801ZM15.8652 36.7846L15.656 37.0146L16.6053 37.8779L16.8145 37.6479L17.0236 37.4178L16.0744 36.5546L15.8652 36.7846ZM16.8145 37.6479L16.5468 37.806L17.6698 39.7064L17.9375 39.5482L18.2052 39.3901L17.0821 37.4897L16.8145 37.6479ZM17.9375 39.5482L17.6676 39.7025L19.0494 42.1205L19.3193 41.9662L19.5893 41.8119L18.2074 39.394L17.9375 39.5482ZM19.3193 41.9662L19.0508 42.1228L20.2597 44.1961L20.5283 44.0395L20.7969 43.8828L19.5879 41.8096L19.3193 41.9662ZM20.5283 44.0395L20.4256 44.3329L23.8807 45.5419L23.9834 45.2484L24.0861 44.955L20.631 43.746L20.5283 44.0395ZM23.9834 45.2484L23.9159 45.5519L24.6933 45.7248L24.7607 45.4213L24.8282 45.1178L24.0509 44.9449L23.9834 45.2484ZM24.7607 45.4213H25.0717V43.0893H24.7607H24.4498V45.4213H24.7607ZM24.7607 43.0893V42.7783H24.1563V43.0893V43.4002H24.7607V43.0893ZM24.1563 43.0893L24.1219 42.7803L21.0125 43.126L21.0469 43.435L21.0812 43.744L24.1906 43.3983L24.1563 43.0893ZM21.0469 43.435L21.3554 43.3962L21.2684 42.7048L20.96 42.7436L20.6515 42.7823L20.7384 43.4737L21.0469 43.435ZM20.96 42.7436L20.9963 43.0523L23.9328 42.7066L23.8965 42.3979L23.8601 42.0891L20.9236 42.4348L20.96 42.7436ZM23.8965 42.3979L23.9571 42.7028L24.8214 42.5309L24.7607 42.226L24.7001 41.921L23.8358 42.0929L23.8965 42.3979ZM24.7607 42.226H25.0717V41.1029H24.7607H24.4498V42.226H24.7607ZM24.7607 41.1029L24.9806 40.8831L24.8937 40.7962L24.6738 41.016L24.454 41.2359L24.5409 41.3228L24.7607 41.1029ZM24.6738 41.016L24.7963 40.7302L22.3783 39.6941L22.2559 39.9799L22.1334 40.2657L24.5514 41.3018L24.6738 41.016ZM22.2559 39.9799L22.3541 39.6849L21.5767 39.4261L21.4785 39.7211L21.3803 40.0161L22.1577 40.2749L22.2559 39.9799ZM21.4785 39.7211L21.1814 39.8126L21.5271 40.9356L21.8242 40.8441L22.1214 40.7527L21.7757 39.6296L21.4785 39.7211ZM21.8242 40.8441L21.7859 40.5356L21.0945 40.6215L21.1328 40.9301L21.1712 41.2386L21.8626 41.1527L21.8242 40.8441ZM21.1328 40.9301L21.4228 40.8179L20.3866 38.1401L20.0967 38.2523L19.8067 38.3645L20.8429 41.0423L21.1328 40.9301ZM20.0967 38.2523L19.9977 38.5471L20.2565 38.634L20.3555 38.3393L20.4545 38.0445L20.1957 37.9576L20.0967 38.2523ZM20.3555 38.3393L20.23 38.6237L23.1665 39.9187L23.292 39.6342L23.4174 39.3497L20.4809 38.0548L20.3555 38.3393ZM23.292 39.6342L23.1737 39.9217L24.6424 40.5262L24.7607 40.2387L24.8791 39.9512L23.4103 39.3467L23.292 39.6342ZM24.7607 40.2387H25.0717L25.0717 22.6205H24.7607H24.4498L24.4498 40.2387H24.7607ZM24.7607 22.6205V22.3096H20.4424V22.6205V22.9314H24.7607V22.6205ZM25.624 22.6205H25.3131L25.3131 40.2387H25.624H25.9349L25.9349 22.6205H25.624ZM25.624 40.2387L25.7357 40.5289L26.8577 40.0972L26.7461 39.807L26.6345 39.5168L25.5124 39.9485L25.624 40.2387ZM26.7461 39.807L26.8737 40.0906L30.3288 38.5359L30.2012 38.2523L30.0736 37.9688L26.6185 39.5235L26.7461 39.807ZM30.2012 38.2523H29.8903V38.4252H30.2012H30.5121V38.2523H30.2012ZM30.2012 38.4252L29.9105 38.3149L28.9603 40.8198L29.251 40.9301L29.5417 41.0403L30.4919 38.5355L30.2012 38.4252ZM29.251 40.9301L29.2893 40.6215L28.5979 40.5356L28.5596 40.8441L28.5212 41.1527L29.2126 41.2386L29.251 40.9301ZM28.5596 40.8441L28.8545 40.9425L29.2002 39.9053L28.9053 39.807L28.6103 39.7087L28.2646 40.7458L28.5596 40.8441ZM28.9053 39.807L29.0437 39.5286L28.8708 39.4427L28.7324 39.7211L28.594 39.9995L28.7669 40.0854L28.9053 39.807ZM28.7324 39.7211L28.6061 39.437L25.4977 40.8188L25.624 41.1029L25.7503 41.387L28.8587 40.0052L28.7324 39.7211ZM25.624 41.1029H25.3131V42.226H25.624H25.9349V41.1029H25.624ZM25.624 42.226L25.485 42.5041L25.6569 42.59L25.7959 42.3119L25.9349 42.0338L25.7631 41.9479L25.624 42.226ZM25.7959 42.3119L25.7592 42.6206L29.3871 43.0523L29.4238 42.7436L29.4606 42.4348L25.8326 42.0032L25.7959 42.3119ZM29.4238 42.7436H29.1129V43.5209H29.4238H29.7347V42.7436H29.4238ZM29.4238 43.5209L29.5622 43.2425L29.3894 43.1566L29.251 43.435L29.1126 43.7134L29.2854 43.7993L29.4238 43.5209ZM29.251 43.435L29.2867 43.1261L27.0416 42.8663L27.0059 43.1752L26.9701 43.484L29.2152 43.7438L29.251 43.435ZM27.0059 43.1752L27.0252 42.8649L25.6433 42.7789L25.624 43.0893L25.6047 43.3996L26.9866 43.4855L27.0059 43.1752ZM25.624 43.0893H25.3131V45.4213H25.624H25.9349V43.0893H25.624ZM25.624 45.4213V45.7322H25.8828V45.4213V45.1104H25.624V45.4213ZM25.8828 45.4213L25.985 45.7149L29.9576 44.3331L29.8555 44.0395L29.7533 43.7458L25.7807 45.1276L25.8828 45.4213ZM29.8555 44.0395L30.1231 44.1976L31.2462 42.2972L30.9785 42.1391L30.7108 41.9809L29.5878 43.8813L29.8555 44.0395ZM30.9785 42.1391L31.2471 42.2957L32.456 40.2235L32.1875 40.0668L31.919 39.9101L30.71 41.9824L30.9785 42.1391ZM32.1875 40.0668L32.4588 40.2187L33.6678 38.0595L33.3965 37.9076L33.1252 37.7557L31.9162 39.9149L32.1875 40.0668ZM33.3965 37.9076L33.6163 38.1275L34.048 37.6958L33.8281 37.476L33.6083 37.2561L33.1766 37.6878L33.3965 37.9076ZM33.8281 37.476L34.0403 37.7032L35.3362 36.4933L35.124 36.266L34.9118 36.0388L33.6159 37.2487L33.8281 37.476ZM35.124 36.266L35.321 36.5066L36.2702 35.7292L36.0732 35.4887L35.8763 35.2481L34.927 36.0255L35.124 36.266ZM36.0732 35.4887L36.281 35.72L37.1453 34.9436L36.9375 34.7123L36.7297 34.481L35.8655 35.2574L36.0732 35.4887ZM36.9375 34.7123L37.2156 34.8513L37.3884 34.5056L37.1104 34.3666L36.8323 34.2276L36.6594 34.5733L36.9375 34.7123ZM37.1104 34.3666V34.0557H27.6963V34.3666V34.6775H37.1104V34.3666ZM27.6963 34.3666L27.998 34.4416L28.084 34.0959L27.7822 34.0209L27.4805 33.9459L27.3946 34.2916L27.6963 34.3666ZM27.7822 34.0209L28.0872 34.0814L30.1604 23.6312L29.8555 23.5707L29.5505 23.5102L27.4773 33.9604L27.7822 34.0209ZM29.8555 23.5707L30.1651 23.5987L30.2511 22.6485L29.9414 22.6205L29.6318 22.5925L29.5458 23.5427L29.8555 23.5707ZM29.9414 22.6205V22.3096H25.624V22.6205V22.9314H29.9414V22.6205ZM1.35547 16.5756L1.04716 16.6157L3.81083 37.8608L4.11914 37.8207L4.42745 37.7806L1.66378 16.5355L1.35547 16.5756ZM4.11914 37.8207L3.81101 37.8622L4.4155 42.3534L4.72363 42.3119L5.03176 42.2704L4.42727 37.7792L4.11914 37.8207ZM4.72363 42.3119V42.6228H4.80957V42.3119V42.001H4.72363V42.3119ZM4.80957 42.3119L5.04853 42.5108L5.48017 41.9923L5.24121 41.7934L5.00225 41.5945L4.57061 42.113L4.80957 42.3119ZM5.24121 41.7934L5.48184 41.9902L10.1459 36.2901L9.90527 36.0932L9.66465 35.8963L5.00059 41.5965L5.24121 41.7934ZM9.90527 36.0932L10.1481 36.2874L10.8385 35.4241L10.5957 35.2299L10.3529 35.0357L9.66247 35.899L9.90527 36.0932ZM10.5957 35.2299L10.8317 35.4323L11.8688 34.2233L11.6328 34.0209L11.3968 33.8185L10.3597 35.0275L10.5957 35.2299ZM11.6328 34.0209H11.9437V33.2436H11.6328H11.3219V34.0209H11.6328ZM11.6328 33.2436L11.9398 33.1942L10.3851 23.5214L10.0781 23.5707L9.77115 23.62L11.3258 33.2929L11.6328 33.2436ZM10.0781 23.5707L10.3562 23.4317L10.1834 23.086L9.90527 23.225L9.62719 23.364L9.80004 23.7097L10.0781 23.5707ZM9.90527 23.225L10.102 22.9842L9.1518 22.2079L8.95508 22.4486L8.75836 22.6894L9.70856 23.4658L9.90527 23.225ZM8.95508 22.4486L9.16522 22.2195L8.12908 21.2693L7.91895 21.4984L7.70881 21.7276L8.74494 22.6778L8.95508 22.4486ZM7.91895 21.4984L8.11581 21.2578L7.16562 20.4804L6.96875 20.7211L6.77188 20.9617L7.72208 21.7391L7.91895 21.4984ZM6.96875 20.7211L7.17889 20.4919L6.14276 19.5418L5.93262 19.7709L5.72248 20L6.75861 20.9502L6.96875 20.7211ZM5.93262 19.7709L6.12948 19.5303L5.17929 18.7529L4.98242 18.9936L4.78556 19.2342L5.73575 20.0115L5.93262 19.7709ZM4.98242 18.9936L5.19149 18.7634L4.2413 17.9002L4.03223 18.1303L3.82316 18.3604L4.77335 19.2237L4.98242 18.9936ZM4.03223 18.1303L4.22909 17.8896L3.2789 17.1123L3.08203 17.3529L2.88516 17.5936L3.83536 18.3709L4.03223 18.1303ZM3.08203 17.3529L3.29217 17.1238L2.25604 16.1736L2.0459 16.4027L1.83576 16.6319L2.87189 17.5821L3.08203 17.3529ZM2.0459 16.4027L2.23261 16.1541L1.54218 15.6356L1.35547 15.8842L1.16875 16.1328L1.85918 16.6513L2.0459 16.4027ZM1.35547 15.8842H1.04456V16.5756H1.35547H1.66638V15.8842H1.35547ZM48.9414 15.8842L48.7335 15.653L47.8692 16.4304L48.0771 16.6615L48.2851 16.8927L49.1493 16.1153L48.9414 15.8842ZM48.0771 16.6615L47.8802 16.421L46.9309 17.1983L47.1279 17.4389L47.3249 17.6794L48.2741 16.9021L48.0771 16.6615ZM47.1279 17.4389L46.9187 17.2089L45.9685 18.0731L46.1777 18.3031L46.3869 18.5331L47.3371 17.6689L47.1279 17.4389ZM46.1777 18.3031L45.9809 18.0625L45.0307 18.8398L45.2275 19.0805L45.4244 19.3211L46.3746 18.5438L46.1777 18.3031ZM45.2275 19.0805L45.0175 18.8512L43.9814 19.8004L44.1914 20.0297L44.4014 20.2589L45.4376 19.3097L45.2275 19.0805ZM44.1914 20.0297L43.9945 19.789L43.0443 20.5664L43.2412 20.807L43.4381 21.0477L44.3883 20.2703L44.1914 20.0297ZM43.2412 20.807L43.0311 20.5779L41.9949 21.5281L42.2051 21.7572L42.4152 21.9864L43.4514 21.0362L43.2412 20.807ZM42.2051 21.7572L42.0082 21.5166L41.058 22.2939L41.2549 22.5346L41.4517 22.7752L42.4019 21.9979L42.2051 21.7572ZM41.2549 22.5346L41.047 22.3034L40.1827 23.0807L40.3906 23.3119L40.5985 23.5431L41.4628 22.7657L41.2549 22.5346ZM40.3906 23.3119L40.087 23.2448L39.9152 24.0221L40.2188 24.0893L40.5223 24.1564L40.6942 23.379L40.3906 23.3119ZM40.2188 24.0893L39.9117 24.0405L38.4429 33.2817L38.75 33.3305L39.0571 33.3793L40.5258 24.1381L40.2188 24.0893ZM38.75 33.3305H38.4391V34.0209H38.75H39.0609V33.3305H38.75ZM38.75 34.0209L38.5094 34.2178L41.6188 38.0176L41.8594 37.8207L42.1 37.6238L38.9906 33.824L38.75 34.0209ZM41.8594 37.8207L41.6165 38.0148L42.3069 38.879L42.5498 38.685L42.7927 38.4909L42.1023 37.6266L41.8594 37.8207ZM42.5498 38.685L42.3138 38.8874L43.3509 40.0964L43.5869 39.8939L43.8229 39.6915L42.7858 38.4825L42.5498 38.685ZM43.5869 39.8939L43.3424 40.0859L44.2916 41.2949L44.5361 41.1029L44.7807 40.9109L43.8315 39.7019L43.5869 39.8939ZM44.5361 41.1029L44.3038 41.3096L44.9952 42.0869L45.2275 41.8803L45.4599 41.6736L44.7684 40.8963L44.5361 41.1029ZM45.2275 41.8803L45.0077 42.1001L45.4393 42.5318L45.6592 42.3119L45.879 42.0921L45.4474 41.6604L45.2275 41.8803ZM45.6592 42.3119L45.9658 42.3633L46.0527 41.8448L45.7461 41.7934L45.4395 41.742L45.3525 42.2605L45.6592 42.3119ZM45.7461 41.7934L46.0544 41.8335L47.695 29.2251L47.3867 29.185L47.0784 29.1448L45.4378 41.7532L45.7461 41.7934ZM47.3867 29.185L47.695 29.2253L49.3356 16.7019L49.0273 16.6615L48.7191 16.6211L47.0784 29.1446L47.3867 29.185ZM49.0273 16.6615H49.3383V15.8842H49.0273H48.7164V16.6615H49.0273ZM49.0273 15.8842V15.5733H48.9414V15.8842V16.1951H49.0273V15.8842ZM11.46 35.4027L11.2193 35.2059L9.66555 37.1063L9.90625 37.3031L10.147 37.4999L11.7007 35.5995L11.46 35.4027ZM9.90625 37.3031L9.66358 37.1088L8.97217 37.972L9.21484 38.1664L9.45752 38.3608L10.1489 37.4975L9.90625 37.3031ZM9.21484 38.1664L8.97877 37.9641L7.94264 39.1731L8.17871 39.3754L8.41479 39.5777L9.45092 38.3687L9.21484 38.1664ZM8.17871 39.3754L7.93426 39.1833L6.98407 40.3923L7.22852 40.5844L7.47296 40.7765L8.42316 39.5675L8.17871 39.3754ZM7.22852 40.5844L6.99116 40.3836L6.04097 41.5066L6.27832 41.7074L6.51567 41.9082L7.46587 40.7852L7.22852 40.5844ZM6.27832 41.7074L6.0194 41.5353L5.67468 42.0539L5.93359 42.226L6.19251 42.3981L6.53724 41.8795L6.27832 41.7074ZM5.93359 42.226L6.0096 42.5275L6.35433 42.4405L6.27832 42.1391L6.20231 41.8376L5.85758 41.9245L5.93359 42.226ZM6.27832 42.1391L6.405 42.423L12.0193 39.9181L11.8926 39.6342L11.7659 39.3502L6.15164 41.8551L6.27832 42.1391ZM11.8926 39.6342L12.0207 39.9175L15.6477 38.2768L15.5195 37.9936L15.3914 37.7103L11.7644 39.3509L11.8926 39.6342ZM15.5195 37.9936L15.7394 38.2134L15.9982 37.9546L15.7783 37.7348L15.5585 37.5149L15.2997 37.7737L15.5195 37.9936ZM15.7783 37.7348L15.9885 37.5056L14.9523 36.5554L14.7422 36.7846L14.532 37.0137L15.5682 37.9639L15.7783 37.7348ZM14.7422 36.7846L14.9391 36.5439L13.9889 35.7666L13.792 36.0072L13.5951 36.2479L14.5453 37.0252L14.7422 36.7846ZM13.792 36.0072L14.0042 35.78L12.7092 34.571L12.4971 34.7982L12.2849 35.0255L13.5798 36.2345L13.792 36.0072ZM12.4971 34.7982L12.6124 34.5095L12.1798 34.3367L12.0645 34.6254L11.9491 34.9141L12.3817 35.087L12.4971 34.7982ZM12.0645 34.6254L11.819 34.4345L11.2145 35.2119L11.46 35.4027L11.7054 35.5936L12.3099 34.8162L12.0645 34.6254ZM37.542 35.1439L37.3397 34.9079L36.1307 35.944L36.333 36.1801L36.5353 36.4161L37.7443 35.38L37.542 35.1439ZM36.333 36.1801L36.1284 35.946L35.437 36.5505L35.6416 36.7846L35.8462 37.0186L36.5377 36.4141L36.333 36.1801ZM35.6416 36.7846L35.4325 36.5545L34.4823 37.4177L34.6914 37.6479L34.9005 37.878L35.8507 37.0147L35.6416 36.7846ZM34.6914 37.6479H34.3805V37.9076H34.6914H35.0023V37.6479H34.6914ZM34.6914 37.9076L34.5643 38.1914L37.0692 39.3134L37.1963 39.0297L37.3234 38.7459L34.8185 37.6239L34.6914 37.9076ZM37.1963 39.0297L37.07 39.3138L40.1794 40.6956L40.3057 40.4115L40.4319 40.1274L37.3226 38.7456L37.1963 39.0297ZM40.3057 40.4115L40.1775 40.6948L43.8044 42.3364L43.9326 42.0531L44.0608 41.7699L40.4339 40.1283L40.3057 40.4115ZM43.9326 42.0531L43.8719 42.358L44.3035 42.444L44.3643 42.1391L44.425 41.8341L43.9933 41.7482L43.9326 42.0531ZM44.3643 42.1391L44.6423 42L44.4695 41.6543L44.1914 41.7934L43.9133 41.9324L44.0862 42.2781L44.3643 42.1391ZM44.1914 41.7934L44.4314 41.5957L43.2224 40.1279L42.9824 40.3256L42.7424 40.5233L43.9514 41.991L44.1914 41.7934ZM42.9824 40.3256L43.2238 40.1296L42.1017 38.7478L41.8604 38.9437L41.619 39.1397L42.7411 40.5216L42.9824 40.3256ZM41.8604 38.9437L42.101 38.7469L41.3237 37.7967L41.083 37.9936L40.8424 38.1904L41.6197 39.1406L41.8604 38.9437ZM41.083 37.9936L41.323 37.7959L40.114 36.3281L39.874 36.5258L39.634 36.7234L40.843 38.1912L41.083 37.9936ZM39.874 36.5258L40.1147 36.3289L39.3373 35.3787L39.0967 35.5756L38.856 35.7724L39.6334 36.7226L39.874 36.5258ZM39.0967 35.5756L39.3394 35.3812L38.6479 34.5179L38.4053 34.7123L38.1626 34.9067L38.854 35.7699L39.0967 35.5756ZM38.4053 34.7123L38.5043 34.4176L38.2455 34.3307L38.1465 34.6254L38.0475 34.9201L38.3063 35.007L38.4053 34.7123ZM38.1465 34.6254L37.9441 34.3894L37.3396 34.908L37.542 35.1439L37.7444 35.3799L38.3489 34.8614L38.1465 34.6254ZM11.6318 28.3207H11.3209V28.6664H11.6318H11.9427V28.3207H11.6318ZM11.6318 28.6664L11.3247 28.7149L12.1021 33.6377L12.4092 33.5893L12.7163 33.5408L11.9389 28.6179L11.6318 28.6664ZM12.4092 33.5893V33.9002H21.7363V33.5893V33.2783H12.4092V33.5893ZM21.7363 33.5893H22.0472V33.2436H21.7363H21.4254V33.5893H21.7363ZM21.7363 33.2436L22.0412 33.1826L21.6096 31.0234L21.3047 31.0844L20.9998 31.1453L21.4314 33.3045L21.7363 33.2436ZM21.3047 31.0844L21.4521 30.8106L19.207 29.6016L19.0596 29.8754L18.9122 30.1491L21.1573 31.3581L21.3047 31.0844ZM19.0596 29.8754L19.2043 29.6002L17.5637 28.737L17.4189 29.0121L17.2742 29.2873L18.9148 30.1505L19.0596 29.8754ZM17.4189 29.0121L17.5628 28.7365L15.5765 27.6994L15.4326 27.975L15.2887 28.2506L17.275 29.2877L17.4189 29.0121ZM15.4326 27.975L15.5716 27.6969L14.1897 27.0064L14.0508 27.2846L13.9118 27.5627L15.2937 28.2531L15.4326 27.975ZM14.0508 27.2846L13.9284 26.9988L11.5094 28.0349L11.6318 28.3207L11.7543 28.6065L14.1732 27.5704L14.0508 27.2846ZM35.9873 27.4574L35.8445 27.1812L33.3396 28.4762L33.4824 28.7523L33.6252 29.0285L36.1301 27.7336L35.9873 27.4574ZM33.4824 28.7523L33.3334 28.4795L31.434 29.5166L31.583 29.7895L31.732 30.0623L33.6314 29.0252L33.4824 28.7523ZM31.583 29.7895L31.4399 29.5134L29.1079 30.7224L29.251 30.9984L29.3941 31.2745L31.7261 30.0655L31.583 29.7895ZM29.251 30.9984L28.9652 30.8761L28.7064 31.4806L28.9922 31.6029L29.278 31.7253L29.5368 31.1208L29.251 30.9984ZM28.9922 31.6029L28.6859 31.5496L28.3402 33.5359L28.6465 33.5893L28.9528 33.6426L29.2985 31.6562L28.9922 31.6029ZM28.6465 33.5893V33.9002H37.9736V33.5893V33.2783H28.6465V33.5893ZM37.9736 33.5893L38.2807 33.6381L38.8852 29.8383L38.5781 29.7895L38.2711 29.7406L37.6666 33.5404L37.9736 33.5893ZM38.5781 29.7895L38.8869 29.8258L39.0598 28.357L38.751 28.3207L38.4422 28.2844L38.2693 29.7531L38.5781 29.7895ZM38.751 28.3207L38.8749 28.0356L36.8886 27.1723L36.7646 27.4574L36.6407 27.7426L38.627 28.6058L38.751 28.3207ZM36.7646 27.4574L36.8034 27.1489L36.112 27.062L36.0732 27.3705L36.0345 27.679L36.7259 27.7659L36.7646 27.4574ZM36.0732 27.3705L35.8522 27.1519L35.7662 27.2388L35.9873 27.4574L36.2084 27.676L36.2943 27.5891L36.0732 27.3705ZM36.2461 24.1752L36.1928 23.8689L30.2338 24.906L30.2871 25.2123L30.3404 25.5186L36.2994 24.4815L36.2461 24.1752ZM30.2871 25.2123L29.9924 25.1133L29.9055 25.3721L30.2002 25.4711L30.4949 25.5701L30.5818 25.3113L30.2871 25.2123ZM30.2002 25.4711L29.8949 25.4124L29.4632 27.6575L29.7686 27.7162L30.0739 27.7749L30.5055 25.5298L30.2002 25.4711ZM29.7686 27.7162L29.4628 27.6596L29.0312 29.9917L29.3369 30.0482L29.6426 30.1048L30.0743 27.7728L29.7686 27.7162ZM29.3369 30.0482V30.3591H29.5098V30.0482V29.7373H29.3369V30.0482ZM29.5098 30.0482L29.6587 30.3212L31.5581 29.285L31.4092 29.0121L31.2603 28.7392L29.3609 29.7753L29.5098 30.0482ZM31.4092 29.0121L31.5518 29.2884L34.2295 27.9066L34.0869 27.6303L33.9443 27.354L31.2666 28.7358L31.4092 29.0121ZM34.0869 27.6303L34.2358 27.9032L36.1352 26.8671L35.9863 26.5941L35.8374 26.3212L33.938 27.3573L34.0869 27.6303ZM35.9863 26.5941L36.2853 26.6796L36.9767 24.2606L36.6777 24.1752L36.3788 24.0897L35.6874 26.5087L35.9863 26.5941ZM36.6777 24.1752V23.8643H36.2461V24.1752V24.4861H36.6777V24.1752ZM10.8555 23.8305L10.5486 23.8804L11.1531 27.5933L11.46 27.5434L11.7668 27.4934L11.1623 23.7805L10.8555 23.8305ZM11.46 27.5434V27.8543H11.6328V27.5434V27.2324H11.46V27.5434ZM11.6328 27.5434L11.7567 27.8285L13.7431 26.9652L13.6191 26.6801L13.4952 26.3949L11.5089 27.2582L11.6328 27.5434ZM13.6191 26.6801H13.9301V26.5072H13.6191H13.3082V26.6801H13.6191ZM13.6191 26.5072L13.9172 26.4188L13.2258 24.0868L12.9277 24.1752L12.6296 24.2636L13.3211 26.5956L13.6191 26.5072ZM12.9277 24.1752L13.1476 23.9553L12.8888 23.6966L12.6689 23.9164L12.4491 24.1363L12.7079 24.395L12.9277 24.1752ZM12.6689 23.9164L12.7129 23.6086L10.8994 23.3498L10.8555 23.6576L10.8115 23.9654L12.625 24.2242L12.6689 23.9164ZM10.8555 23.6576H10.5446V23.8305H10.8555H11.1664V23.6576H10.8555ZM39.2686 23.6576L39.2077 23.3527L37.4811 23.6975L37.542 24.0023L37.6029 24.3072L39.3294 23.9625L39.2686 23.6576ZM37.542 24.0023L37.2455 23.9087L36.727 25.5503L37.0234 25.6439L37.3199 25.7376L37.8385 24.096L37.542 24.0023ZM37.0234 25.6439L36.7218 25.5686L36.463 26.6047L36.7646 26.6801L37.0663 26.7554L37.3251 25.7193L37.0234 25.6439ZM36.7646 26.6801L36.64 26.9649L38.0219 27.5694L38.1465 27.2846L38.2711 26.9997L36.8893 26.3952L36.7646 26.6801ZM38.1465 27.2846L38.0483 27.5796L38.8256 27.8384L38.9238 27.5434L39.022 27.2484L38.2447 26.9896L38.1465 27.2846ZM38.9238 27.5434L39.2288 27.6041L39.3147 27.1724L39.0098 27.1117L38.7048 27.051L38.6189 27.4826L38.9238 27.5434ZM39.0098 27.1117L39.3172 27.1579L39.8358 23.7038L39.5283 23.6576L39.2209 23.6115L38.7023 27.0656L39.0098 27.1117ZM39.5283 23.6576V23.3467H39.2686V23.6576V23.9685H39.5283V23.6576ZM15.7783 16.4887L15.528 16.3043L11.9011 21.2271L12.1514 21.4115L12.4017 21.5959L16.0286 16.6731L15.7783 16.4887ZM12.1514 21.4115L11.9026 21.225L10.8665 22.6068L11.1152 22.7934L11.364 22.9799L12.4001 21.598L12.1514 21.4115ZM11.1152 22.7934L10.8954 23.0132L11.0682 23.1861L11.2881 22.9662L11.5079 22.7464L11.3351 22.5735L11.1152 22.7934ZM11.2881 22.9662L11.2376 23.273L18.0599 24.396L18.1104 24.0893L18.1609 23.7825L11.3386 22.6594L11.2881 22.9662ZM18.1104 24.0893L18.0664 24.397L19.8799 24.6558L19.9238 24.348L19.9678 24.0403L18.1543 23.7815L18.1104 24.0893ZM19.9238 24.348H20.2347V24.1752H19.9238H19.6129V24.348H19.9238ZM19.9238 24.1752L20.229 24.1155L19.4516 20.1428L19.1465 20.2025L18.8414 20.2622L19.6187 24.2349L19.9238 24.1752ZM19.1465 20.2025L19.4505 20.1375L18.9329 17.7195L18.6289 17.7846L18.3249 17.8496L18.8425 20.2676L19.1465 20.2025ZM18.6289 17.7846L18.7813 17.5136L17.3995 16.7362L17.2471 17.0072L17.0946 17.2782L18.4765 18.0555L18.6289 17.7846ZM17.2471 17.0072L17.3933 16.7328L16.0974 16.0424L15.9512 16.3168L15.805 16.5912L17.1009 17.2816L17.2471 17.0072ZM15.9512 16.3168L15.7319 16.0963L15.5591 16.2682L15.7783 16.4887L15.9975 16.7091L16.1704 16.5373L15.9512 16.3168ZM34.3467 16.3168L34.1281 16.0957L34.0412 16.1816L34.2598 16.4027L34.4784 16.6238L34.5653 16.5379L34.3467 16.3168ZM34.2598 16.4027L34.1129 16.1287L31.6949 17.4246L31.8418 17.6986L31.9887 17.9727L34.4066 16.6768L34.2598 16.4027ZM31.8418 17.6986L31.5639 17.5593L31.391 17.904L31.6689 18.0434L31.9469 18.1827L32.1197 17.838L31.8418 17.6986ZM31.6689 18.0434L31.3638 17.9837L30.5865 21.9563L30.8916 22.016L31.1967 22.0757L31.9741 18.1031L31.6689 18.0434ZM30.8916 22.016L30.5859 21.9594L30.1542 24.2915L30.46 24.348L30.7657 24.4046L31.1973 22.0726L30.8916 22.016ZM30.46 24.348V24.659H31.0645V24.348V24.0371H30.46V24.348ZM31.0645 24.348L31.1173 24.6544L38.6309 23.3595L38.5781 23.0531L38.5253 22.7467L31.0116 24.0417L31.0645 24.348ZM38.5781 23.0531L38.6535 23.3548L39.3449 23.1819L39.2695 22.8803L39.1941 22.5786L38.5027 22.7515L38.5781 23.0531ZM39.2695 22.8803L39.5359 22.72L39.2762 22.2883L39.0098 22.4486L38.7434 22.6089L39.0031 23.0406L39.2695 22.8803ZM39.0098 22.4486L39.2601 22.2642L35.6331 17.3414L35.3828 17.5258L35.1325 17.7102L38.7595 22.633L39.0098 22.4486ZM35.3828 17.5258L35.6358 17.3451L34.7726 16.1361L34.5195 16.3168L34.2665 16.4975L35.1298 17.7065L35.3828 17.5258ZM34.5195 16.3168V16.0059H34.3467V16.3168V16.6277H34.5195V16.3168ZM10.3369 9.75234L10.1826 9.48242L5.95117 11.9014L6.10547 12.1713L6.25977 12.4412L10.4912 10.0223L10.3369 9.75234ZM6.10547 12.1713L5.94885 11.9027L3.87561 13.1117L4.03223 13.3803L4.18885 13.6489L6.26209 12.4399L6.10547 12.1713ZM4.03223 13.3803L3.88028 13.109L1.72207 14.318L1.87402 14.5893L2.02597 14.8605L4.18418 13.6515L4.03223 13.3803ZM1.87402 14.5893L1.67993 14.3464L1.24732 14.6921L1.44141 14.935L1.6355 15.1778L2.06811 14.8321L1.87402 14.5893ZM1.44141 14.935L1.23919 15.1711L1.84369 15.6887L2.0459 15.4525L2.24811 15.2164L1.64362 14.6988L1.44141 14.935ZM2.0459 15.4525L1.84903 15.6932L2.79923 16.4705L2.99609 16.2299L3.19296 15.9892L2.24277 15.2119L2.0459 15.4525ZM2.99609 16.2299L2.78596 16.459L3.82209 17.4092L4.03223 17.1801L4.24237 16.9509L3.20623 16.0007L2.99609 16.2299ZM4.03223 17.1801L3.83536 17.4207L4.78556 18.1981L4.98242 17.9574L5.17929 17.7168L4.22909 16.9394L4.03223 17.1801ZM4.98242 17.9574L4.77228 18.1866L5.80842 19.1368L6.01855 18.9076L6.22869 18.6785L5.19256 17.7283L4.98242 17.9574ZM6.01855 18.9076L5.82169 19.1483L6.77188 19.9256L6.96875 19.685L7.16562 19.4443L6.21542 18.667L6.01855 18.9076ZM6.96875 19.685L6.75884 19.9143L7.79595 20.8635L8.00586 20.6342L8.21577 20.4048L7.17866 19.4556L6.96875 19.685ZM8.00586 20.6342L7.80887 20.8747L8.75809 21.6521L8.95508 21.4115L9.15207 21.171L8.20285 20.3936L8.00586 20.6342ZM8.95508 21.4115L8.74505 21.6408L9.78216 22.591L9.99219 22.3617L10.2022 22.1325L9.16511 21.1823L8.95508 21.4115ZM9.99219 22.3617L9.87661 22.6503L10.3082 22.8232L10.4238 22.5346L10.5394 22.2459L10.1078 22.0731L9.99219 22.3617ZM10.4238 22.5346L10.6769 22.7152L11.1085 22.1108L10.8555 21.9301L10.6024 21.7494L10.1708 22.3539L10.4238 22.5346ZM10.8555 21.9301L11.1075 22.1121L12.2305 20.5574L11.9785 20.3754L11.7265 20.1933L10.6034 21.748L10.8555 21.9301ZM11.9785 20.3754L12.2273 20.5619L13.5222 18.8343L13.2734 18.6479L13.0247 18.4614L11.7297 20.1889L11.9785 20.3754ZM13.2734 18.6479L13.5254 18.83L14.6485 17.2763L14.3965 17.0941L14.1445 16.912L13.0215 18.4657L13.2734 18.6479ZM14.3965 17.0941L14.6453 17.2806L15.9402 15.5531L15.6914 15.3666L15.4426 15.1801L14.1477 16.9077L14.3965 17.0941ZM15.6914 15.3666L15.5525 15.6447L16.4167 16.0764L16.5557 15.7982L16.6946 15.5201L15.8303 15.0885L15.6914 15.3666ZM16.5557 15.7982L16.4047 16.0701L17.9594 16.9333L18.1104 16.6615L18.2613 16.3897L16.7066 15.5264L16.5557 15.7982ZM18.1104 16.6615L17.9635 16.9356L20.3815 18.2315L20.5283 17.9574L20.6752 17.6834L18.2572 16.3875L18.1104 16.6615ZM20.5283 17.9574L20.3753 18.2281L22.3616 19.3511L22.5146 19.0805L22.6677 18.8098L20.6813 17.6868L20.5283 17.9574ZM22.5146 19.0805L22.3666 19.3539L24.4389 20.4759L24.5869 20.2025L24.735 19.9291L22.6627 18.8071L22.5146 19.0805ZM24.5869 20.2025L24.6846 20.4977L24.9443 20.4118L24.8467 20.1166L24.749 19.8214L24.4893 19.9074L24.5869 20.2025ZM24.8467 20.1166L25.1575 20.1088L25.0706 16.6537L24.7598 16.6615L24.449 16.6693L24.5359 20.1244L24.8467 20.1166ZM24.7598 16.6615L24.9796 16.4417L24.8937 16.3557L24.6738 16.5756L24.454 16.7954L24.5399 16.8814L24.7598 16.6615ZM24.6738 16.5756L24.8338 16.309L23.9695 15.7904L23.8096 16.057L23.6496 16.3236L24.5139 16.8422L24.6738 16.5756ZM23.8096 16.057L23.9649 15.7877L21.7198 14.4928L21.5645 14.7621L21.4091 15.0314L23.6542 16.3264L23.8096 16.057ZM21.5645 14.7621L21.7187 14.4922L19.3008 13.1103L19.1465 13.3803L18.9922 13.6502L21.4102 15.032L21.5645 14.7621ZM19.1465 13.3803L19.3019 13.111L17.0558 11.8151L16.9004 12.0844L16.745 12.3537L18.9911 13.6496L19.1465 13.3803ZM16.9004 12.0844L17.0571 11.8158L14.9848 10.6068L14.8281 10.8754L14.6715 11.1439L16.7437 12.3529L16.9004 12.0844ZM14.8281 10.8754L14.9791 10.6036L12.647 9.30865L12.4961 9.58047L12.3452 9.85228L14.6772 11.1472L14.8281 10.8754ZM12.4961 9.58047L12.645 9.30755L11.6948 8.789L11.5459 9.06191L11.397 9.33483L12.3472 9.85338L12.4961 9.58047ZM11.5459 9.06191L11.3917 8.79193L10.1827 9.48236L10.3369 9.75234L10.4911 10.0223L11.7001 9.3319L11.5459 9.06191ZM38.1465 9.40762L37.9899 9.13904L35.9166 10.348L36.0732 10.6166L36.2299 10.8852L38.3031 9.6762L38.1465 9.40762ZM36.0732 10.6166L35.9203 10.3459L33.934 11.468L34.0869 11.7387L34.2398 12.0094L36.2262 10.8873L36.0732 10.6166ZM34.0869 11.7387L33.9301 11.4702L31.8579 12.6801L32.0146 12.9486L32.1714 13.2171L34.2437 12.0072L34.0869 11.7387ZM32.0146 12.9486L31.8617 12.6779L29.8754 13.8L30.0283 14.0707L30.1812 14.3414L32.1676 13.2193L32.0146 12.9486ZM30.0283 14.0707L29.8717 13.8021L27.7985 15.0111L27.9551 15.2797L28.1117 15.5483L30.1849 14.3393L30.0283 14.0707ZM27.9551 15.2797L27.804 15.0079L26.2493 15.8722L26.4004 16.1439L26.5515 16.4157L28.1061 15.5514L27.9551 15.2797ZM26.4004 16.1439L26.2279 15.8853L25.4516 16.4028L25.624 16.6615L25.7965 16.9202L26.5729 16.4026L26.4004 16.1439ZM25.624 16.6615H25.3131V20.2025H25.624H25.9349V16.6615H25.624ZM25.624 20.2025V20.5134H25.7959V20.2025V19.8916H25.624V20.2025ZM25.7959 20.2025L25.9433 20.4763L27.0663 19.8718L26.9189 19.598L26.7716 19.3243L25.6485 19.9288L25.7959 20.2025ZM26.9189 19.598L27.072 19.8687L29.0583 18.7456L28.9053 18.475L28.7523 18.2044L26.7659 19.3274L26.9189 19.598ZM28.9053 18.475L29.0521 18.7491L31.47 17.4542L31.3232 17.1801L31.1765 16.906L28.7585 18.2009L28.9053 18.475ZM31.3232 17.1801L31.4763 17.4507L33.4626 16.3277L33.3096 16.057L33.1566 15.7864L31.1702 16.9094L31.3232 17.1801ZM33.3096 16.057L33.4485 16.3352L34.8304 15.6447L34.6914 15.3666L34.5524 15.0885L33.1706 15.7789L33.3096 16.057ZM34.6914 15.3666L34.4428 15.5533L34.9614 16.2437L35.21 16.057L35.4586 15.8703L34.94 15.1799L34.6914 15.3666ZM35.21 16.057L34.9597 16.2414L38.5866 21.1643L38.8369 20.9799L39.0872 20.7955L35.4603 15.8726L35.21 16.057ZM38.8369 20.9799L38.5849 21.1619L39.7079 22.7166L39.96 22.5346L40.212 22.3525L39.0889 20.7978L38.8369 20.9799ZM39.96 22.5346V22.8455H40.1328V22.5346V22.2237H39.96V22.5346ZM40.1328 22.5346L40.3297 22.7752L41.2799 21.9979L41.083 21.7572L40.8861 21.5166L39.9359 22.2939L40.1328 22.5346ZM41.083 21.7572L41.3777 21.6582L41.2908 21.3995L40.9961 21.4984L40.7014 21.5974L40.7883 21.8562L41.083 21.7572ZM40.9961 21.4984L41.2464 21.314L38.8284 18.0318L38.5781 18.2162L38.3278 18.4006L40.7458 21.6828L40.9961 21.4984ZM38.5781 18.2162L38.8312 18.0355L37.9679 16.8266L37.7148 17.0072L37.4618 17.1879L38.3251 18.3969L38.5781 18.2162ZM37.7148 17.0072L37.9618 16.8183L36.8387 15.3505L36.5918 15.5395L36.3449 15.7284L37.4679 17.1962L37.7148 17.0072ZM36.5918 15.5395L36.8541 15.3726L36.2496 14.4224L35.9873 14.5893L35.725 14.7561L36.3295 15.7063L36.5918 15.5395ZM35.9873 14.5893L36.1383 14.861L40.025 12.7019L39.874 12.4301L39.723 12.1583L35.8363 14.3175L35.9873 14.5893ZM39.874 12.4301L40.0131 12.7082L41.222 12.1037L41.083 11.8256L40.944 11.5475L39.735 12.152L39.874 12.4301ZM41.083 11.8256L40.8323 12.0094L41.7815 13.3043L42.0322 13.1205L42.283 12.9367L41.3338 11.6418L41.083 11.8256ZM42.0322 13.1205L41.782 13.305L42.9919 14.9466L43.2422 14.7621L43.4925 14.5776L42.2825 12.936L42.0322 13.1205ZM43.2422 14.7621L42.9892 14.9428L43.8524 16.1518L44.1055 15.9711L44.3585 15.7904L43.4952 14.5814L43.2422 14.7621ZM44.1055 15.9711L43.8037 16.0461L43.8897 16.3918L44.1914 16.3168L44.4931 16.2418L44.4072 15.8961L44.1055 15.9711ZM44.1914 16.3168L43.9097 16.1853L43.3052 17.4802L43.5869 17.6117L43.8686 17.7432L44.4731 16.4483L44.1914 16.3168ZM43.5869 17.6117L43.3067 17.4769L42.1847 19.8089L42.4648 19.9437L42.745 20.0786L43.8671 17.7465L43.5869 17.6117ZM42.4648 19.9437L42.17 19.8452L41.9102 20.6226L42.2051 20.7211L42.5 20.8196L42.7597 20.0423L42.4648 19.9437ZM42.2051 20.7211L42.3992 20.964L42.8318 20.6183L42.6377 20.3754L42.4436 20.1325L42.011 20.4782L42.2051 20.7211ZM42.6377 20.3754L42.8347 20.6159L43.7839 19.8386L43.5869 19.598L43.3899 19.3575L42.4407 20.1348L42.6377 20.3754ZM43.5869 19.598L43.7969 19.8273L44.8341 18.8771L44.624 18.6479L44.414 18.4186L43.3769 19.3688L43.5869 19.598ZM44.624 18.6479L44.821 18.8884L45.7702 18.111L45.5732 17.8705L45.3763 17.63L44.427 18.4073L44.624 18.6479ZM45.5732 17.8705L45.7832 18.0999L46.8203 17.1506L46.6104 16.9213L46.4004 16.6919L45.3633 17.6412L45.5732 17.8705ZM46.6104 16.9213L46.8073 17.1618L47.7566 16.3845L47.5596 16.1439L47.3626 15.9034L46.4134 16.6807L46.6104 16.9213ZM47.5596 16.1439L47.7688 16.3739L48.719 15.5097L48.5098 15.2797L48.3006 15.0497L47.3504 15.9139L47.5596 16.1439ZM48.5098 15.2797L48.7296 15.4995L49.1613 15.0679L48.9414 14.848L48.7216 14.6282L48.2899 15.0598L48.5098 15.2797ZM48.9414 14.848L49.0968 14.5787L44.6066 11.9879L44.4512 12.2572L44.2958 12.5265L48.786 15.1173L48.9414 14.848ZM44.4512 12.2572L44.6054 11.9873L42.1864 10.6054L42.0322 10.8754L41.878 11.1454L44.297 12.5272L44.4512 12.2572ZM42.0322 10.8754L42.1889 10.6068L40.1166 9.39786L39.96 9.6664L39.8033 9.93495L41.8756 11.1439L42.0322 10.8754ZM39.96 9.6664L40.099 9.38832L38.89 8.78383L38.751 9.06191L38.6119 9.34L39.8209 9.94449L39.96 9.6664ZM38.751 9.06191L38.5966 8.79202L37.9921 9.13772L38.1465 9.40762L38.3008 9.67751L38.9053 9.3318L38.751 9.06191ZM19.8369 19.8578L19.5337 19.9267L19.9654 21.8261L20.2686 21.7572L20.5717 21.6883L20.1401 19.7889L19.8369 19.8578ZM20.2686 21.7572V22.0681H24.7598V21.7572V21.4463H20.2686V21.7572ZM24.7598 21.7572H25.0707V21.1527H24.7598H24.4489V21.7572H24.7598ZM24.7598 21.1527L24.9141 20.8828L24.3096 20.5371L24.1553 20.807L24.0009 21.0769L24.6054 21.4226L24.7598 21.1527ZM24.1553 20.807L24.3082 20.5363L22.3219 19.4143L22.1689 19.685L22.016 19.9557L24.0024 21.0777L24.1553 20.807ZM22.1689 19.685L22.3171 19.4116L20.2448 18.2886L20.0967 18.5619L19.9485 18.8353L22.0208 19.9583L22.1689 19.685ZM20.0967 18.5619L20.195 18.267L19.6764 18.0941L19.5781 18.3891L19.4798 18.684L19.9984 18.8569L20.0967 18.5619ZM19.5781 18.3891L19.2719 18.443L19.5307 19.9118L19.8369 19.8578L20.1431 19.8039L19.8843 18.3351L19.5781 18.3891ZM30.6328 18.3891L30.4785 18.1192L29.874 18.4649L30.0283 18.7348L30.1827 19.0047L30.7872 18.659L30.6328 18.3891ZM30.0283 18.7348L29.8815 18.4607L27.4636 19.7556L27.6104 20.0297L27.7571 20.3038L30.1751 19.0088L30.0283 18.7348ZM27.6104 20.0297L27.4573 19.759L25.471 20.8821L25.624 21.1527L25.777 21.4234L27.7634 20.3003L27.6104 20.0297ZM25.624 21.1527H25.3131V21.7572H25.624H25.9349V21.1527H25.624ZM25.624 21.7572V22.0681H30.2012V21.7572V21.4463H25.624V21.7572ZM30.2012 21.7572L30.5061 21.8181L31.0236 19.2273L30.7188 19.1664L30.4139 19.1055L29.8963 21.6963L30.2012 21.7572ZM30.7188 19.1664L31.0277 19.201L31.1146 18.4236L30.8057 18.3891L30.4967 18.3545L30.4098 19.1319L30.7188 19.1664ZM30.8057 18.3891V18.0782H30.6328V18.3891V18.7H30.8057V18.3891ZM40.6504 12.8617L40.4994 12.5899L38.1673 13.8858L38.3184 14.1576L38.4694 14.4294L40.8014 13.1335L40.6504 12.8617ZM38.3184 14.1576L38.1642 13.8876L36.9552 14.5781L37.1094 14.848L37.2636 15.118L38.4725 14.4276L38.3184 14.1576ZM37.1094 14.848L36.8395 15.0024L37.1852 15.6069L37.4551 15.4525L37.725 15.2982L37.3793 14.6937L37.1094 14.848ZM37.4551 15.4525L37.2048 15.6369L39.6227 18.9192L39.873 18.7348L40.1234 18.5504L37.7054 15.2681L37.4551 15.4525ZM39.873 18.7348L39.621 18.9168L40.7441 20.4715L40.9961 20.2895L41.2481 20.1074L40.1251 18.5527L39.873 18.7348ZM40.9961 20.2895L40.7766 20.5096L41.1223 20.8543L41.3418 20.6342L41.5613 20.414L41.2156 20.0693L40.9961 20.2895ZM41.3418 20.6342L41.6199 20.7732L42.0515 19.9099L41.7734 19.7709L41.4953 19.6319L41.0637 20.4951L41.3418 20.6342ZM41.7734 19.7709L42.056 19.9007L43.5237 16.7054L43.2412 16.5756L42.9587 16.4458L41.4909 19.6411L41.7734 19.7709ZM43.2412 16.5756L43.546 16.637L43.6329 16.2053L43.3281 16.1439L43.0233 16.0826L42.9364 16.5142L43.2412 16.5756ZM43.3281 16.1439L43.587 15.9717L43.4141 15.7119L43.1553 15.8842L42.8964 16.0564L43.0693 16.3162L43.3281 16.1439ZM43.1553 15.8842L43.4072 15.702L42.2842 14.1483L42.0322 14.3305L41.7803 14.5126L42.9033 16.0663L43.1553 15.8842ZM42.0322 14.3305L42.2787 14.141L41.4154 13.0179L41.1689 13.2074L40.9224 13.3969L41.7857 14.5199L42.0322 14.3305ZM41.1689 13.2074L41.3885 12.9873L40.9559 12.5557L40.7363 12.7758L40.5167 12.9959L40.9493 13.4275L41.1689 13.2074ZM40.7363 12.7758L40.5165 12.5559L40.4305 12.6419L40.6504 12.8617L40.8702 13.0816L40.9562 12.9956L40.7363 12.7758ZM24.5869 1.54824L24.4303 1.27966L22.3571 2.48864L22.5137 2.75723L22.6703 3.02581L24.7435 1.81682L24.5869 1.54824ZM22.5137 2.75723L22.3582 2.48795L20.1131 3.78385L20.2686 4.05312L20.424 4.3224L22.6691 3.0265L22.5137 2.75723ZM20.2686 4.05312L20.1129 3.78401L18.4722 4.73323L18.6279 5.00234L18.7836 5.27146L20.4243 4.32224L20.2686 4.05312ZM18.6279 5.00234L18.4759 4.73112L16.3168 5.94108L16.4688 6.2123L16.6207 6.48353L18.7799 5.27357L18.6279 5.00234ZM16.4688 6.2123L16.3121 5.94372L14.2389 7.15271L14.3955 7.42129L14.5521 7.68987L16.6254 6.48088L16.4688 6.2123ZM14.3955 7.42129L14.2426 7.15058L12.2563 8.27265L12.4092 8.54336L12.5621 8.81406L14.5484 7.69199L14.3955 7.42129ZM12.4092 8.54336L12.1314 8.68303L12.2183 8.85588L12.4961 8.71621L12.7739 8.57654L12.687 8.40369L12.4092 8.54336ZM12.4961 8.71621L12.3403 8.98525L13.9809 9.93545L14.1367 9.6664L14.2925 9.39736L12.6519 8.44717L12.4961 8.71621ZM14.1367 9.6664L13.9791 9.9344L15.4469 10.7977L15.6045 10.5297L15.7621 10.2617L14.2943 9.39841L14.1367 9.6664ZM15.6045 10.5297L15.4526 10.801L17.6118 12.0099L17.7637 11.7387L17.9156 11.4674L15.7564 10.2584L15.6045 10.5297ZM17.7637 11.7387L17.607 12.0072L19.6802 13.2172L19.8369 12.9486L19.9936 12.6801L17.9204 11.4701L17.7637 11.7387ZM19.8369 12.9486L19.684 13.2193L21.6703 14.3414L21.8232 14.0707L21.9762 13.8L19.9898 12.6779L19.8369 12.9486ZM21.8232 14.0707L21.6666 14.3392L23.7388 15.5482L23.8955 15.2797L24.0522 15.0111L21.9799 13.8022L21.8232 14.0707ZM23.8955 15.2797L23.7562 15.5576L24.6195 15.9903L24.7588 15.7123L24.8981 15.4343L24.0348 15.0017L23.8955 15.2797ZM24.7588 15.7123L25.0697 15.7143L25.1566 1.8959L24.8457 1.89394L24.5348 1.89199L24.4479 15.7103L24.7588 15.7123ZM24.8457 1.89394L25.1472 1.81814L25.0603 1.47243L24.7588 1.54824L24.4573 1.62405L24.5442 1.96975L24.8457 1.89394ZM24.7588 1.54824V1.23733H24.5869V1.54824V1.85915H24.7588V1.54824ZM25.624 15.7123L25.7632 15.9903L26.4537 15.6446L26.3145 15.3666L26.1753 15.0886L25.4848 15.4343L25.624 15.7123ZM26.3145 15.3666L26.4698 15.6359L30.961 13.0451L30.8057 12.7758L30.6503 12.5065L26.1591 15.0973L26.3145 15.3666ZM30.8057 12.7758L30.9599 13.0457L33.3779 11.6639L33.2236 11.3939L33.0694 11.124L30.6514 12.5058L30.8057 12.7758ZM33.2236 11.3939L33.379 11.6633L37.8702 9.07244L37.7148 8.80312L37.5595 8.53381L33.0683 11.1246L33.2236 11.3939ZM37.7148 8.80312L37.9351 9.02256L38.1939 8.76279L37.9736 8.54336L37.7534 8.32393L37.4946 8.58369L37.7148 8.80312ZM37.9736 8.54336L38.1293 8.27424L36.4887 7.32503L36.333 7.59414L36.1773 7.86325L37.8179 8.81247L37.9736 8.54336ZM36.333 7.59414L36.4872 7.32417L34.0683 5.94234L33.9141 6.2123L33.7598 6.48227L36.1788 7.8641L36.333 7.59414ZM33.9141 6.2123L34.0708 5.94381L31.9986 4.73385L31.8418 5.00234L31.685 5.27084L33.7573 6.4808L33.9141 6.2123ZM31.8418 5.00234L31.9937 4.73106L29.8345 3.52208L29.6826 3.79336L29.5307 4.06464L31.6899 5.27362L31.8418 5.00234ZM29.6826 3.79336L29.8393 3.52481L27.767 2.31582L27.6104 2.58437L27.4537 2.85292L29.5259 4.06191L29.6826 3.79336ZM27.6104 2.58437L27.7613 2.31256L26.2066 1.44928L26.0557 1.72109L25.9047 1.99291L27.4594 2.85619L27.6104 2.58437ZM26.0557 1.72109L26.1712 1.43246L25.7396 1.25961L25.624 1.54824L25.5084 1.83687L25.9401 2.00972L26.0557 1.72109ZM25.624 1.54824H25.3131V15.7123H25.624H25.9349V1.54824H25.624Z" fill="white"/>
</svg>
